<svg width="30" height="30" viewBox="0 0 30 30" fill="none" xmlns="http://www.w3.org/2000/svg">
<path d="M26.25 0H3.75C1.67906 0 0 2.23875 0 5V25C0 27.7613 1.67906 30 3.75 30H26.25C28.3209 30 30 27.7613 30 25V5C30 2.23875 28.3209 0 26.25 0ZM20.0775 13.3423L28.0151 4.27242C28.0701 4.5068 28.125 4.74117 28.125 5V25C28.125 25.1734 28.0755 25.3272 28.0499 25.4907L20.0775 13.3423ZM26.25 2.5C26.3745 2.5 26.4844 2.56352 26.6016 2.59523L15 15.8545L3.39844 2.59523C3.51562 2.56352 3.62549 2.5 3.75 2.5H26.25ZM1.94918 25.4883C1.92352 25.3247 1.875 25.1734 1.875 25V5C1.875 4.74117 1.93084 4.5068 1.9858 4.27242L9.92068 13.3398L1.94918 25.4883ZM3.75 27.5C3.56051 27.5 3.38836 27.4267 3.21533 27.3559L11.3452 14.9682L14.3903 18.4472C14.5651 18.6499 14.783 18.75 15 18.75C15.217 18.75 15.4349 18.6499 15.6097 18.4473L18.6548 14.9683L26.7847 27.356C26.6126 27.4267 26.4404 27.5 26.25 27.5H3.75Z" fill="#E4730B" fill-opacity="0.6"/>
</svg>
