<svg width="30" height="30" viewBox="0 0 30 30" fill="none" xmlns="http://www.w3.org/2000/svg">
<path d="M20.0658 10.4393C19.2134 9.40601 18.0604 8.69376 16.7312 8.37936C15.402 8.065 14.0215 8.17792 12.7387 8.70615C12.1546 8.94665 11.6088 9.26827 11.1162 9.66219C9.77898 10.7316 8.93202 12.2341 8.7313 13.8931C8.53057 15.5522 9.00007 17.1691 10.0534 18.4459C11.1067 19.7228 12.6177 20.5068 14.308 20.6536C15.6803 20.7728 17.0372 20.4604 18.2148 19.7665C18.4878 19.6056 18.7513 19.4242 19.0029 19.223C20.3401 18.1536 21.187 16.6511 21.3878 14.9921C21.5886 13.3331 21.1191 11.7161 20.0658 10.4393ZM17.5821 17.5007C16.7269 18.1849 15.6601 18.5098 14.5788 18.4159C13.4975 18.322 12.5309 17.8204 11.8571 17.0036C11.1833 16.1868 10.8829 15.1525 11.0113 14.0911C11.1398 13.0298 11.6816 12.0686 12.537 11.3845C12.6945 11.2586 12.8606 11.1441 13.034 11.042C13.2073 10.9398 13.3881 10.8499 13.5749 10.773C15.2593 10.0795 17.1429 10.525 18.2621 11.8817C19.653 13.5679 19.348 16.0886 17.5821 17.5007Z" fill="#E4730B" fill-opacity="0.6"/>
<path d="M21.8941 0H8.10592C3.63633 0 0 3.63633 0 8.10592V21.8941C0 26.3637 3.63633 30 8.10592 30H21.8941C26.3637 30 30 26.3637 30 21.8941V8.10592C30 3.63633 26.3637 0 21.8941 0ZM27.5763 21.8941C27.5763 25.0273 25.0273 27.5763 21.8941 27.5763H8.10592C4.97273 27.5763 2.42367 25.0273 2.42367 21.8941V8.10592C2.42367 4.97273 4.97268 2.42367 8.10592 2.42367H21.8941C25.0273 2.42367 27.5763 4.97268 27.5763 8.10592V21.8941V21.8941Z" fill="#E4730B" fill-opacity="0.6"/>
</svg>
