<svg width="159" height="45" viewBox="0 0 159 45" fill="none" xmlns="http://www.w3.org/2000/svg">
<path d="M13.688 5.624C14.52 4.568 15.352 3.592 16.184 2.696C17.048 1.768 17.752 1.192 18.296 0.967998C18.84 0.743999 19.944 0.631999 21.608 0.631999C23.272 0.631999 24.104 0.839999 24.104 1.256C24.104 1.416 23.928 1.592 23.576 1.784C23.224 1.976 22.744 2.28 22.136 2.696C21.528 3.112 20.248 4.248 18.296 6.104C16.376 7.96 14.44 10.136 12.488 12.632C12.424 12.696 12.392 12.792 12.392 12.92C12.392 13.016 12.472 13.08 12.632 13.112C12.824 13.144 13.08 13.192 13.4 13.256C13.72 13.32 14.296 13.576 15.128 14.024C15.992 14.44 16.76 14.984 17.432 15.656C18.104 16.296 18.744 17.304 19.352 18.68C19.992 20.024 20.36 21.304 20.456 22.52C20.552 23.704 20.648 24.776 20.744 25.736C20.84 26.696 21.08 28.072 21.464 29.864C21.88 31.656 22.36 32.728 22.904 33.08C23.064 33.208 23.144 33.368 23.144 33.56C23.144 34.072 22.44 34.552 21.032 35C19.624 35.416 18.36 35.624 17.24 35.624C16.152 35.624 15.528 35.176 15.368 34.28C15.208 33.32 15.096 31.032 15.032 27.416V25.496C15.032 22.136 14.552 19.704 13.592 18.2C12.76 16.888 12.008 16.152 11.336 15.992C10.824 15.832 10.552 15.752 10.52 15.752L9.992 15.992C9.224 16.888 8.616 17.752 8.168 18.584C7.72 19.416 7.48 20.024 7.448 20.408L7.352 21.032C7.352 25.544 7.544 29.4 7.928 32.6C7.992 32.984 8.024 33.208 8.024 33.272C8.024 33.976 7.272 34.584 5.768 35.096C4.296 35.608 3.08 35.864 2.12 35.864C1.192 35.864 0.728 35.72 0.728 35.432C0.728 35.24 0.776 35 0.872 34.712C1.192 34.008 1.416 31.688 1.544 27.752C1.704 23.784 1.784 20.184 1.784 16.952C1.784 13.688 1.72 11.048 1.592 9.032C1.4 5.992 1.08 4.168 0.632 3.56C0.28 3.112 0.104 2.824 0.104 2.696C0.104 2.248 0.92 1.816 2.552 1.4C4.216 0.983997 5.544 0.775997 6.536 0.775997C7.56 0.775997 8.072 0.999997 8.072 1.448L8.024 2.072C7.608 5.528 7.4 9.224 7.4 13.16C7.4 13.48 7.464 13.64 7.592 13.64C7.752 13.64 7.928 13.496 8.12 13.208C8.312 12.92 8.584 12.52 8.936 12.008C9.32 11.496 9.992 10.568 10.952 9.224C11.944 7.88 12.856 6.68 13.688 5.624ZM24.2056 35.336C24.7816 31.88 25.0696 27.736 25.0696 22.904C25.0696 18.072 24.9256 14.936 24.6376 13.496C24.6376 13.08 25.1176 12.872 26.0776 12.872C27.5496 12.872 28.5256 13.432 29.0056 14.552C29.0376 14.648 29.1176 14.696 29.2456 14.696C29.3736 14.696 29.4696 14.664 29.5336 14.6C30.5256 13.576 32.0616 13.064 34.1416 13.064C36.2216 13.064 37.8696 13.592 39.0856 14.648C40.3016 15.704 40.9096 17.24 40.9096 19.256C40.9096 20.472 40.7976 22.2 40.5736 24.44C40.3816 26.68 40.2856 28.344 40.2856 29.432C40.2856 32.024 40.7176 33.896 41.5816 35.048C41.7096 35.208 41.7736 35.368 41.7736 35.528C41.7736 35.944 41.3256 36.152 40.4296 36.152C36.4616 36.152 34.4776 34.392 34.4776 30.872C34.4776 29.528 34.7816 27.656 35.3896 25.256C35.9976 22.856 36.3016 21.032 36.3016 19.784C36.3016 17.224 35.2456 15.944 33.1336 15.944C32.1096 15.944 31.3256 16.248 30.7816 16.856C30.2696 17.464 29.9816 18.168 29.9176 18.968C29.8536 19.736 29.8216 21.208 29.8216 23.384C29.8216 26.712 29.9336 29.608 30.1576 32.072L30.2536 33.128C30.2536 34.024 29.6616 34.712 28.4776 35.192C27.3256 35.704 26.3176 35.96 25.4536 35.96C24.6216 35.96 24.2056 35.752 24.2056 35.336ZM48.3215 9.32L47.1695 9.272C46.3055 9.272 45.7455 9.48 45.4895 9.896C45.4255 9.992 45.3455 10.04 45.2495 10.04C44.8335 10.04 44.6255 9.336 44.6255 7.928C44.6255 6.488 44.8335 5.576 45.2495 5.192C45.6975 4.808 46.4495 4.616 47.5055 4.616C48.5935 4.616 49.3295 4.808 49.7135 5.192C50.0975 5.544 50.2895 6.152 50.2895 7.016C50.2895 7.88 50.1455 8.488 49.8575 8.84C49.5695 9.16 49.0575 9.32 48.3215 9.32ZM44.4815 33.56L45.0095 22.376C45.0095 19.72 44.7055 17.912 44.0975 16.952C43.9055 16.632 43.6815 16.392 43.4255 16.232C43.2335 16.168 43.1375 16.04 43.1375 15.848C43.1375 15.272 43.9535 14.712 45.5855 14.168C47.2175 13.624 48.4015 13.352 49.1375 13.352C49.9055 13.352 50.3055 13.544 50.3375 13.928C50.3375 14.568 50.2415 16.392 50.0495 19.4C49.8895 22.376 49.8095 25.512 49.8095 28.808C49.8095 32.104 50.0015 34.152 50.3855 34.952C50.4815 35.112 50.5295 35.272 50.5295 35.432C50.5295 35.848 49.9215 36.056 48.7055 36.056C47.4895 36.056 46.2415 35.736 44.9615 35.096C44.6415 34.936 44.4815 34.424 44.4815 33.56ZM59.6956 23L59.9356 32.6C59.9356 34.616 59.6636 36.392 59.1196 37.928C58.6076 39.496 57.9676 40.664 57.1996 41.432C55.6316 43.064 54.2556 43.992 53.0716 44.216L52.2556 44.408C51.7756 44.408 51.5356 44.264 51.5356 43.976L51.7756 43.256C54.1116 40.024 55.2796 32.088 55.2796 19.448C55.2796 18.296 55.2636 17.432 55.2316 16.856C54.5596 16.856 53.8876 16.904 53.2156 17H53.1676C52.8156 17 52.6396 16.824 52.6396 16.472L52.7836 14.648C52.8156 14.36 53.0396 14.216 53.4556 14.216H55.1836V11L55.2796 6.44C55.2796 6.216 55.3116 5.976 55.3756 5.72C55.4716 5.432 55.8236 5.016 56.4316 4.472C57.0396 3.896 57.9356 3.384 59.1196 2.936C60.3036 2.456 61.3116 2.216 62.1436 2.216C63.0076 2.216 63.4396 2.472 63.4396 2.984C63.4396 3.176 63.2956 3.336 63.0076 3.464C62.0796 3.752 61.3116 4.584 60.7036 5.96C60.1276 7.304 59.8396 9.608 59.8396 12.872V14.216C61.4716 14.152 62.5436 14.072 63.0556 13.976C63.2796 13.976 63.3916 14.168 63.3916 14.552C63.3916 14.936 63.2156 15.416 62.8636 15.992C62.5436 16.536 62.1276 16.824 61.6156 16.856C61.1356 16.856 60.5276 16.84 59.7916 16.808C59.7276 19.24 59.6956 21.304 59.6956 23ZM68.1875 22.808L68.2355 24.008C68.2355 24.2 68.3635 24.296 68.6195 24.296C69.6435 24.2 70.5395 23.944 71.3075 23.528C72.0755 23.08 72.6515 22.584 73.0355 22.04C73.8035 20.856 74.2195 19.832 74.2835 18.968L74.3315 18.392C74.3315 16.664 73.6435 15.8 72.2675 15.8C71.2435 15.8 70.4115 16.248 69.7715 17.144C68.7155 18.552 68.1875 20.44 68.1875 22.808ZM78.6515 29.192C78.6515 30.408 78.3955 31.48 77.8835 32.408C77.4035 33.304 76.8435 33.976 76.2035 34.424C75.5955 34.84 74.8755 35.176 74.0435 35.432C72.9875 35.752 71.9795 35.912 71.0195 35.912C68.3315 35.912 66.3475 34.904 65.0675 32.888C63.7875 30.872 63.1475 28.312 63.1475 25.208C63.1475 22.072 63.9315 19.288 65.4995 16.856C67.0995 14.424 69.4835 13.208 72.6515 13.208C75.5315 13.208 77.4835 14.216 78.5075 16.232C78.9235 17 79.1315 17.736 79.1315 18.44C79.1315 19.112 79.0995 19.656 79.0355 20.072C78.9715 20.456 78.7475 21.048 78.3635 21.848C77.9795 22.648 77.4675 23.368 76.8275 24.008C76.1875 24.648 75.1795 25.256 73.8035 25.832C72.4275 26.408 70.8115 26.792 68.9555 26.984C68.6995 26.984 68.5715 27.096 68.5715 27.32C68.5715 27.608 68.6675 28.04 68.8595 28.616C69.0835 29.16 69.3235 29.624 69.5795 30.008C70.2835 30.904 71.3235 31.352 72.6995 31.352C74.0755 31.352 75.2435 30.904 76.2035 30.008C76.7155 29.528 77.1315 28.936 77.4515 28.232C77.5795 27.976 77.7395 27.848 77.9315 27.848C78.1555 27.848 78.3315 28.024 78.4595 28.376C78.5875 28.728 78.6515 29 78.6515 29.192ZM105.048 16.28L105.192 14.36C105.224 14.072 105.448 13.928 105.864 13.928H107.544L107.352 10.088V9.896C107.352 9.16 107.912 8.456 109.032 7.784C110.152 7.112 111.176 6.776 112.104 6.776C112.392 6.776 112.536 6.904 112.536 7.16V7.208C112.408 8.072 112.28 10.296 112.152 13.88C113.56 13.88 114.456 13.848 114.84 13.784C115.224 13.72 115.432 13.688 115.464 13.688C115.688 13.688 115.8 13.88 115.8 14.264C115.8 14.648 115.624 15.144 115.272 15.752C114.92 16.328 114.536 16.632 114.12 16.664H112.104C112.072 17.752 112.056 19.592 112.056 22.184C112.056 24.744 112.072 26.856 112.104 28.52C112.168 30.184 112.232 31.448 112.296 32.312C112.36 33.144 112.424 33.816 112.488 34.328C112.584 34.84 112.648 35.208 112.68 35.432C112.744 35.656 112.776 35.8 112.776 35.864C112.776 36.184 112.568 36.36 112.152 36.392C110.904 36.392 109.656 36.216 108.408 35.864C107.192 35.512 106.584 34.904 106.584 34.04C107.256 28.664 107.592 22.888 107.592 16.712C106.728 16.712 106.072 16.744 105.624 16.808H105.576C105.288 16.808 105.112 16.632 105.048 16.28ZM121.062 22.808L121.111 24.008C121.111 24.2 121.239 24.296 121.495 24.296C122.519 24.2 123.415 23.944 124.183 23.528C124.951 23.08 125.527 22.584 125.911 22.04C126.679 20.856 127.095 19.832 127.159 18.968L127.207 18.392C127.207 16.664 126.519 15.8 125.143 15.8C124.119 15.8 123.287 16.248 122.647 17.144C121.591 18.552 121.062 20.44 121.062 22.808ZM131.527 29.192C131.527 30.408 131.271 31.48 130.759 32.408C130.279 33.304 129.719 33.976 129.079 34.424C128.471 34.84 127.751 35.176 126.919 35.432C125.863 35.752 124.855 35.912 123.895 35.912C121.207 35.912 119.223 34.904 117.943 32.888C116.663 30.872 116.023 28.312 116.023 25.208C116.023 22.072 116.807 19.288 118.375 16.856C119.975 14.424 122.359 13.208 125.527 13.208C128.407 13.208 130.359 14.216 131.383 16.232C131.799 17 132.007 17.736 132.007 18.44C132.007 19.112 131.975 19.656 131.911 20.072C131.847 20.456 131.623 21.048 131.239 21.848C130.855 22.648 130.343 23.368 129.703 24.008C129.063 24.648 128.055 25.256 126.679 25.832C125.303 26.408 123.687 26.792 121.831 26.984C121.575 26.984 121.447 27.096 121.447 27.32C121.447 27.608 121.543 28.04 121.735 28.616C121.959 29.16 122.199 29.624 122.455 30.008C123.159 30.904 124.199 31.352 125.575 31.352C126.951 31.352 128.119 30.904 129.079 30.008C129.591 29.528 130.007 28.936 130.327 28.232C130.455 27.976 130.615 27.848 130.807 27.848C131.031 27.848 131.207 28.024 131.335 28.376C131.463 28.728 131.527 29 131.527 29.192ZM138.734 22.808L138.782 24.008C138.782 24.2 138.91 24.296 139.166 24.296C140.19 24.2 141.086 23.944 141.854 23.528C142.622 23.08 143.198 22.584 143.582 22.04C144.35 20.856 144.766 19.832 144.83 18.968L144.878 18.392C144.878 16.664 144.19 15.8 142.814 15.8C141.79 15.8 140.958 16.248 140.318 17.144C139.262 18.552 138.734 20.44 138.734 22.808ZM149.198 29.192C149.198 30.408 148.942 31.48 148.43 32.408C147.95 33.304 147.39 33.976 146.75 34.424C146.142 34.84 145.422 35.176 144.59 35.432C143.534 35.752 142.526 35.912 141.566 35.912C138.878 35.912 136.894 34.904 135.614 32.888C134.334 30.872 133.694 28.312 133.694 25.208C133.694 22.072 134.478 19.288 136.046 16.856C137.646 14.424 140.03 13.208 143.198 13.208C146.078 13.208 148.03 14.216 149.054 16.232C149.47 17 149.678 17.736 149.678 18.44C149.678 19.112 149.646 19.656 149.582 20.072C149.518 20.456 149.294 21.048 148.91 21.848C148.526 22.648 148.014 23.368 147.374 24.008C146.734 24.648 145.726 25.256 144.35 25.832C142.974 26.408 141.358 26.792 139.502 26.984C139.246 26.984 139.118 27.096 139.118 27.32C139.118 27.608 139.214 28.04 139.406 28.616C139.63 29.16 139.87 29.624 140.126 30.008C140.83 30.904 141.87 31.352 143.246 31.352C144.622 31.352 145.79 30.904 146.75 30.008C147.262 29.528 147.678 28.936 147.998 28.232C148.126 27.976 148.286 27.848 148.478 27.848C148.702 27.848 148.878 28.024 149.006 28.376C149.134 28.728 149.198 29 149.198 29.192ZM157.858 7.544L157.57 25.16C157.57 30.664 157.746 33.96 158.098 35.048C158.194 35.24 158.242 35.432 158.242 35.624C158.242 36.008 157.778 36.2 156.85 36.2C155.922 36.2 154.882 35.96 153.73 35.48C152.61 35.032 152.05 34.44 152.05 33.704C152.69 29.224 153.01 23.24 153.01 15.752L152.818 8.408C152.754 7.512 152.562 6.744 152.242 6.104C151.954 5.464 151.666 5.048 151.378 4.856L150.994 4.616C150.77 4.488 150.658 4.344 150.658 4.184C150.658 3.736 151.346 3.192 152.722 2.552C154.13 1.88 155.49 1.544 156.802 1.544C157.314 1.544 157.602 1.72 157.666 2.072C157.794 2.904 157.858 4.728 157.858 7.544Z" fill="white"/>
<path d="M96.5634 8.408L96.7554 6.92C96.7554 5.448 96.1794 4.504 95.0274 4.088C94.1314 3.8 93.4434 3.656 92.9634 3.656H92.9154C91.9554 3.656 91.1234 3.816 90.4194 4.136C89.7154 4.424 89.2034 4.792 88.8834 5.24C88.2114 6.168 87.8274 7.144 87.7314 8.168C87.7314 9.384 88.2754 10.44 89.3634 11.336C90.4514 12.2 91.7634 12.968 93.2994 13.64C94.8674 14.28 96.4194 14.984 97.9554 15.752C99.5234 16.52 100.851 17.624 101.939 19.064C103.027 20.504 103.571 22.232 103.571 24.248C103.571 28.184 102.323 31.128 99.8274 33.08C97.3634 35.032 94.5474 36.008 91.3794 36.008C88.2434 36.008 85.6354 35.304 83.5554 33.896C81.5074 32.456 80.4834 30.536 80.4834 28.136V28.088C80.4834 26.904 80.6594 25.88 81.0114 25.016C81.3954 24.12 81.8434 23.464 82.3554 23.048C83.4114 22.184 84.3714 21.72 85.2354 21.656L85.8114 21.608C86.7074 21.608 87.5234 21.832 88.2594 22.28C88.9954 22.696 89.3634 23.288 89.3634 24.056C89.3634 24.44 89.1554 24.76 88.7394 25.016C88.3234 25.272 87.9554 25.656 87.6354 26.168C87.3474 26.68 87.1874 27.112 87.1554 27.464L87.0594 27.992C87.0594 29.944 87.9554 31.24 89.7474 31.88C90.3874 32.104 90.8994 32.216 91.2834 32.216C93.0434 32.216 94.4514 31.688 95.5074 30.632C96.5954 29.576 97.1394 28.232 97.1394 26.6C97.1394 24.648 96.3074 23.064 94.6434 21.848C93.3954 20.952 92.0354 20.2 90.5634 19.592C89.1234 18.984 88.1474 18.552 87.6354 18.296C87.1234 18.04 86.5794 17.736 86.0034 17.384C85.4274 17.032 84.7874 16.536 84.0834 15.896C82.5474 14.552 81.7794 12.744 81.7794 10.472C81.7794 8.168 82.4034 6.232 83.6514 4.664C85.8914 1.816 89.2514 0.391999 93.7314 0.391999C96.0994 0.391999 98.0994 0.855999 99.7314 1.784C101.363 2.68 102.179 3.928 102.179 5.528C102.179 6.68 101.843 7.64 101.171 8.408C100.531 9.176 99.6994 9.56 98.6754 9.56C98.1954 9.56 97.7154 9.464 97.2354 9.272C96.7874 9.08 96.5634 8.792 96.5634 8.408Z" fill="#E4730B"/>
</svg>
