<svg width="159" height="45" viewBox="0 0 159 45" fill="none" xmlns="http://www.w3.org/2000/svg">
<path d="M13.688 5.624C14.52 4.568 15.352 3.592 16.184 2.696C17.048 1.768 17.752 1.192 18.296 0.967998C18.84 0.743999 19.944 0.631999 21.608 0.631999C23.272 0.631999 24.104 0.839999 24.104 1.256C24.104 1.416 23.928 1.592 23.576 1.784C23.224 1.976 22.744 2.28 22.136 2.696C21.528 3.112 20.248 4.248 18.296 6.104C16.376 7.96 14.44 10.136 12.488 12.632C12.424 12.696 12.392 12.792 12.392 12.92C12.392 13.016 12.472 13.08 12.632 13.112C12.824 13.144 13.08 13.192 13.4 13.256C13.72 13.32 14.296 13.576 15.128 14.024C15.992 14.44 16.76 14.984 17.432 15.656C18.104 16.296 18.744 17.304 19.352 18.68C19.992 20.024 20.36 21.304 20.456 22.52C20.552 23.704 20.648 24.776 20.744 25.736C20.84 26.696 21.08 28.072 21.464 29.864C21.88 31.656 22.36 32.728 22.904 33.08C23.064 33.208 23.144 33.368 23.144 33.56C23.144 34.072 22.44 34.552 21.032 35C19.624 35.416 18.36 35.624 17.24 35.624C16.152 35.624 15.528 35.176 15.368 34.28C15.208 33.32 15.096 31.032 15.032 27.416V25.496C15.032 22.136 14.552 19.704 13.592 18.2C12.76 16.888 12.008 16.152 11.336 15.992C10.824 15.832 10.552 15.752 10.52 15.752L9.992 15.992C9.224 16.888 8.616 17.752 8.168 18.584C7.72 19.416 7.48 20.024 7.448 20.408L7.352 21.032C7.352 25.544 7.544 29.4 7.928 32.6C7.992 32.984 8.024 33.208 8.024 33.272C8.024 33.976 7.272 34.584 5.768 35.096C4.296 35.608 3.08 35.864 2.12 35.864C1.192 35.864 0.728 35.72 0.728 35.432C0.728 35.24 0.776 35 0.872 34.712C1.192 34.008 1.416 31.688 1.544 27.752C1.704 23.784 1.784 20.184 1.784 16.952C1.784 13.688 1.72 11.048 1.592 9.032C1.4 5.992 1.08 4.168 0.632 3.56C0.28 3.112 0.104 2.824 0.104 2.696C0.104 2.248 0.92 1.816 2.552 1.4C4.216 0.983997 5.544 0.775997 6.536 0.775997C7.56 0.775997 8.072 0.999997 8.072 1.448L8.024 2.072C7.608 5.528 7.4 9.224 7.4 13.16C7.4 13.48 7.464 13.64 7.592 13.64C7.752 13.64 7.928 13.496 8.12 13.208C8.312 12.92 8.584 12.52 8.936 12.008C9.32 11.496 9.992 10.568 10.952 9.224C11.944 7.88 12.856 6.68 13.688 5.624ZM24.2056 35.336C24.7816 31.88 25.0696 27.736 25.0696 22.904C25.0696 18.072 24.9256 14.936 24.6376 13.496C24.6376 13.08 25.1176 12.872 26.0776 12.872C27.5496 12.872 28.5256 13.432 29.0056 14.552C29.0376 14.648 29.1176 14.696 29.2456 14.696C29.3736 14.696 29.4696 14.664 29.5336 14.6C30.5256 13.576 32.0616 13.064 34.1416 13.064C36.2216 13.064 37.8696 13.592 39.0856 14.648C40.3016 15.704 40.9096 17.24 40.9096 19.256C40.9096 20.472 40.7976 22.2 40.5736 24.44C40.3816 26.68 40.2856 28.344 40.2856 29.432C40.2856 32.024 40.7176 33.896 41.5816 35.048C41.7096 35.208 41.7736 35.368 41.7736 35.528C41.7736 35.944 41.3256 36.152 40.4296 36.152C36.4616 36.152 34.4776 34.392 34.4776 30.872C34.4776 29.528 34.7816 27.656 35.3896 25.256C35.9976 22.856 36.3016 21.032 36.3016 19.784C36.3016 17.224 35.2456 15.944 33.1336 15.944C32.1096 15.944 31.3256 16.248 30.7816 16.856C30.2696 17.464 29.9816 18.168 29.9176 18.968C29.8536 19.736 29.8216 21.208 29.8216 23.384C29.8216 26.712 29.9336 29.608 30.1576 32.072L30.2536 33.128C30.2536 34.024 29.6616 34.712 28.4776 35.192C27.3256 35.704 26.3176 35.96 25.4536 35.96C24.6216 35.96 24.2056 35.752 24.2056 35.336ZM48.3215 9.32L47.1695 9.272C46.3055 9.272 45.7455 9.48 45.4895 9.896C45.4255 9.992 45.3455 10.04 45.2495 10.04C44.8335 10.04 44.6255 9.336 44.6255 7.928C44.6255 6.488 44.8335 5.576 45.2495 5.192C45.6975 4.808 46.4495 4.616 47.5055 4.616C48.5935 4.616 49.3295 4.808 49.7135 5.192C50.0975 5.544 50.2895 6.152 50.2895 7.016C50.2895 7.88 50.1455 8.488 49.8575 8.84C49.5695 9.16 49.0575 9.32 48.3215 9.32ZM44.4815 33.56L45.0095 22.376C45.0095 19.72 44.7055 17.912 44.0975 16.952C43.9055 16.632 43.6815 16.392 43.4255 16.232C43.2335 16.168 43.1375 16.04 43.1375 15.848C43.1375 15.272 43.9535 14.712 45.5855 14.168C47.2175 13.624 48.4015 13.352 49.1375 13.352C49.9055 13.352 50.3055 13.544 50.3375 13.928C50.3375 14.568 50.2415 16.392 50.0495 19.4C49.8895 22.376 49.8095 25.512 49.8095 28.808C49.8095 32.104 50.0015 34.152 50.3855 34.952C50.4815 35.112 50.5295 35.272 50.5295 35.432C50.5295 35.848 49.9215 36.056 48.7055 36.056C47.4895 36.056 46.2415 35.736 44.9615 35.096C44.6415 34.936 44.4815 34.424 44.4815 33.56ZM59.6956 23L59.9356 32.6C59.9356 34.616 59.6636 36.392 59.1196 37.928C58.6076 39.496 57.9676 40.664 57.1996 41.432C55.6316 43.064 54.2556 43.992 53.0716 44.216L52.2556 44.408C51.7756 44.408 51.5356 44.264 51.5356 43.976L51.7756 43.256C54.1116 40.024 55.2796 32.088 55.2796 19.448C55.2796 18.296 55.2636 17.432 55.2316 16.856C54.5596 16.856 53.8876 16.904 53.2156 17H53.1676C52.8156 17 52.6396 16.824 52.6396 16.472L52.7836 14.648C52.8156 14.36 53.0396 14.216 53.4556 14.216H55.1836V11L55.2796 6.44C55.2796 6.216 55.3116 5.976 55.3756 5.72C55.4716 5.432 55.8236 5.016 56.4316 4.472C57.0396 3.896 57.9356 3.384 59.1196 2.936C60.3036 2.456 61.3116 2.216 62.1436 2.216C63.0076 2.216 63.4396 2.472 63.4396 2.984C63.4396 3.176 63.2956 3.336 63.0076 3.464C62.0796 3.752 61.3116 4.584 60.7036 5.96C60.1276 7.304 59.8396 9.608 59.8396 12.872V14.216C61.4716 14.152 62.5436 14.072 63.0556 13.976C63.2796 13.976 63.3916 14.168 63.3916 14.552C63.3916 14.936 63.2156 15.416 62.8636 15.992C62.5436 16.536 62.1276 16.824 61.6156 16.856C61.1356 16.856 60.5276 16.84 59.7916 16.808C59.7276 19.24 59.6956 21.304 59.6956 23ZM68.1875 22.808L68.2355 24.008C68.2355 24.2 68.3635 24.296 68.6195 24.296C69.6435 24.2 70.5395 23.944 71.3075 23.528C72.0755 23.08 72.6515 22.584 73.0355 22.04C73.8035 20.856 74.2195 19.832 74.2835 18.968L74.3315 18.392C74.3315 16.664 73.6435 15.8 72.2675 15.8C71.2435 15.8 70.4115 16.248 69.7715 17.144C68.7155 18.552 68.1875 20.44 68.1875 22.808ZM78.6515 29.192C78.6515 30.408 78.3955 31.48 77.8835 32.408C77.4035 33.304 76.8435 33.976 76.2035 34.424C75.5955 34.84 74.8755 35.176 74.0435 35.432C72.9875 35.752 71.9795 35.912 71.0195 35.912C68.3315 35.912 66.3475 34.904 65.0675 32.888C63.7875 30.872 63.1475 28.312 63.1475 25.208C63.1475 22.072 63.9315 19.288 65.4995 16.856C67.0995 14.424 69.4835 13.208 72.6515 13.208C75.5315 13.208 77.4835 14.216 78.5075 16.232C78.9235 17 79.1315 17.736 79.1315 18.44C79.1315 19.112 79.0995 19.656 79.0355 20.072C78.9715 20.456 78.7475 21.048 78.3635 21.848C77.9795 22.648 77.4675 23.368 76.8275 24.008C76.1875 24.648 75.1795 25.256 73.8035 25.832C72.4275 26.408 70.8115 26.792 68.9555 26.984C68.6995 26.984 68.5715 27.096 68.5715 27.32C68.5715 27.608 68.6675 28.04 68.8595 28.616C69.0835 29.16 69.3235 29.624 69.5795 30.008C70.2835 30.904 71.3235 31.352 72.6995 31.352C74.0755 31.352 75.2435 30.904 76.2035 30.008C76.7155 29.528 77.1315 28.936 77.4515 28.232C77.5795 27.976 77.7395 27.848 77.9315 27.848C78.1555 27.848 78.3315 28.024 78.4595 28.376C78.5875 28.728 78.6515 29 78.6515 29.192ZM105.048 16.28L105.192 14.36C105.224 14.072 105.448 13.928 105.864 13.928H107.544L107.352 10.088V9.896C107.352 9.16 107.912 8.456 109.032 7.784C110.152 7.112 111.176 6.776 112.104 6.776C112.392 6.776 112.536 6.904 112.536 7.16V7.208C112.408 8.072 112.28 10.296 112.152 13.88C113.56 13.88 114.456 13.848 114.84 13.784C115.224 13.72 115.432 13.688 115.464 13.688C115.688 13.688 115.8 13.88 115.8 14.264C115.8 14.648 115.624 15.144 115.272 15.752C114.92 16.328 114.536 16.632 114.12 16.664H112.104C112.072 17.752 112.056 19.592 112.056 22.184C112.056 24.744 112.072 26.856 112.104 28.52C112.168 30.184 112.232 31.448 112.296 32.312C112.36 33.144 112.424 33.816 112.488 34.328C112.584 34.84 112.648 35.208 112.68 35.432C112.744 35.656 112.776 35.8 112.776 35.864C112.776 36.184 112.568 36.36 112.152 36.392C110.904 36.392 109.656 36.216 108.408 35.864C107.192 35.512 106.584 34.904 106.584 34.04C107.256 28.664 107.592 22.888 107.592 16.712C106.728 16.712 106.072 16.744 105.624 16.808H105.576C105.288 16.808 105.112 16.632 105.048 16.28ZM121.062 22.808L121.111 24.008C121.111 24.2 121.239 24.296 121.495 24.296C122.519 24.2 123.415 23.944 124.183 23.528C124.951 23.08 125.527 22.584 125.911 22.04C126.679 20.856 127.095 19.832 127.159 18.968L127.207 18.392C127.207 16.664 126.519 15.8 125.143 15.8C124.119 15.8 123.287 16.248 122.647 17.144C121.591 18.552 121.062 20.44 121.062 22.808ZM131.527 29.192C131.527 30.408 131.271 31.48 130.759 32.408C130.279 33.304 129.719 33.976 129.079 34.424C128.471 34.84 127.751 35.176 126.919 35.432C125.863 35.752 124.855 35.912 123.895 35.912C121.207 35.912 119.223 34.904 117.943 32.888C116.663 30.872 116.023 28.312 116.023 25.208C116.023 22.072 116.807 19.288 118.375 16.856C119.975 14.424 122.359 13.208 125.527 13.208C128.407 13.208 130.359 14.216 131.383 16.232C131.799 17 132.007 17.736 132.007 18.44C132.007 19.112 131.975 19.656 131.911 20.072C131.847 20.456 131.623 21.048 131.239 21.848C130.855 22.648 130.343 23.368 129.703 24.008C129.063 24.648 128.055 25.256 126.679 25.832C125.303 26.408 123.687 26.792 121.831 26.984C121.575 26.984 121.447 27.096 121.447 27.32C121.447 27.608 121.543 28.04 121.735 28.616C121.959 29.16 122.199 29.624 122.455 30.008C123.159 30.904 124.199 31.352 125.575 31.352C126.951 31.352 128.119 30.904 129.079 30.008C129.591 29.528 130.007 28.936 130.327 28.232C130.455 27.976 130.615 27.848 130.807 27.848C131.031 27.848 131.207 28.024 131.335 28.376C131.463 28.728 131.527 29 131.527 29.192ZM138.734 22.808L138.782 24.008C138.782 24.2 138.91 24.296 139.166 24.296C140.19 24.2 141.086 23.944 141.854 23.528C142.622 23.08 143.198 22.584 143.582 22.04C144.35 20.856 144.766 19.832 144.83 18.968L144.878 18.392C144.878 16.664 144.19 15.8 142.814 15.8C141.79 15.8 140.958 16.248 140.318 17.144C139.262 18.552 138.734 20.44 138.734 22.808ZM149.198 29.192C149.198 30.408 148.942 31.48 148.43 32.408C147.95 33.304 147.39 33.976 146.75 34.424C146.142 34.84 145.422 35.176 144.59 35.432C143.534 35.752 142.526 35.912 141.566 35.912C138.878 35.912 136.894 34.904 135.614 32.888C134.334 30.872 133.694 28.312 133.694 25.208C133.694 22.072 134.478 19.288 136.046 16.856C137.646 14.424 140.03 13.208 143.198 13.208C146.078 13.208 148.03 14.216 149.054 16.232C149.47 17 149.678 17.736 149.678 18.44C149.678 19.112 149.646 19.656 149.582 20.072C149.518 20.456 149.294 21.048 148.91 21.848C148.526 22.648 148.014 23.368 147.374 24.008C146.734 24.648 145.726 25.256 144.35 25.832C142.974 26.408 141.358 26.792 139.502 26.984C139.246 26.984 139.118 27.096 139.118 27.32C139.118 27.608 139.214 28.04 139.406 28.616C139.63 29.16 139.87 29.624 140.126 30.008C140.83 30.904 141.87 31.352 143.246 31.352C144.622 31.352 145.79 30.904 146.75 30.008C147.262 29.528 147.678 28.936 147.998 28.232C148.126 27.976 148.286 27.848 148.478 27.848C148.702 27.848 148.878 28.024 149.006 28.376C149.134 28.728 149.198 29 149.198 29.192ZM157.858 7.544L157.57 25.16C157.57 30.664 157.746 33.96 158.098 35.048C158.194 35.24 158.242 35.432 158.242 35.624C158.242 36.008 157.778 36.2 156.85 36.2C155.922 36.2 154.882 35.96 153.73 35.48C152.61 35.032 152.05 34.44 152.05 33.704C152.69 29.224 153.01 23.24 153.01 15.752L152.818 8.408C152.754 7.512 152.562 6.744 152.242 6.104C151.954 5.464 151.666 5.048 151.378 4.856L150.994 4.616C150.77 4.488 150.658 4.344 150.658 4.184C150.658 3.736 151.346 3.192 152.722 2.552C154.13 1.88 155.49 1.544 156.802 1.544C157.314 1.544 157.602 1.72 157.666 2.072C157.794 2.904 157.858 4.728 157.858 7.544Z" fill="white"/>
<path d="M96.5634 8.408L96.7554 6.92C96.7554 5.448 96.1794 4.504 95.0274 4.088C94.1314 3.8 93.4434 3.656 92.9634 3.656H92.9154C91.9554 3.656 91.1234 3.816 90.4194 4.136C89.7154 4.424 89.2034 4.792 88.8834 5.24C88.2114 6.168 87.8274 7.144 87.7314 8.168C87.7314 9.384 88.2754 10.44 89.3634 11.336C90.4514 12.2 91.7634 12.968 93.2994 13.64C94.8674 14.28 96.4194 14.984 97.9554 15.752C99.5234 16.52 100.851 17.624 101.939 19.064C103.027 20.504 103.571 22.232 103.571 24.248C103.571 28.184 102.323 31.128 99.8274 33.08C97.3634 35.032 94.5474 36.008 91.3794 36.008C88.2434 36.008 85.6354 35.304 83.5554 33.896C81.5074 32.456 80.4834 30.536 80.4834 28.136V28.088C80.4834 26.904 80.6594 25.88 81.0114 25.016C81.3954 24.12 81.8434 23.464 82.3554 23.048C83.4114 22.184 84.3714 21.72 85.2354 21.656L85.8114 21.608C86.7074 21.608 87.5234 21.832 88.2594 22.28C88.9954 22.696 89.3634 23.288 89.3634 24.056C89.3634 24.44 89.1554 24.76 88.7394 25.016C88.3234 25.272 87.9554 25.656 87.6354 26.168C87.3474 26.68 87.1874 27.112 87.1554 27.464L87.0594 27.992C87.0594 29.944 87.9554 31.24 89.7474 31.88C90.3874 32.104 90.8994 32.216 91.2834 32.216C93.0434 32.216 94.4514 31.688 95.5074 30.632C96.5954 29.576 97.1394 28.232 97.1394 26.6C97.1394 24.648 96.3074 23.064 94.6434 21.848C93.3954 20.952 92.0354 20.2 90.5634 19.592C89.1234 18.984 88.1474 18.552 87.6354 18.296C87.1234 18.04 86.5794 17.736 86.0034 17.384C85.4274 17.032 84.7874 16.536 84.0834 15.896C82.5474 14.552 81.7794 12.744 81.7794 10.472C81.7794 8.168 82.4034 6.232 83.6514 4.664C85.8914 1.816 89.2514 0.391999 93.7314 0.391999C96.0994 0.391999 98.0994 0.855999 99.7314 1.784C101.363 2.68 102.179 3.928 102.179 5.528C102.179 6.68 101.843 7.64 101.171 8.408C100.531 9.176 99.6994 9.56 98.6754 9.56C98.1954 9.56 97.7154 9.464 97.2354 9.272C96.7874 9.08 96.5634 8.792 96.5634 8.408Z" fill="#E4730B"/>
<path d="M13.688 5.624L15.259 6.86174L15.259 6.86174L13.688 5.624ZM16.184 2.696L14.7202 1.33316L14.7184 1.3351L16.184 2.696ZM18.296 0.967998L17.5345 -0.88136L17.5345 -0.881357L18.296 0.967998ZM22.136 2.696L21.0066 1.04538L21.0066 1.04538L22.136 2.696ZM18.296 6.104L16.9179 4.65459L16.9119 4.66028L16.906 4.66602L18.296 6.104ZM12.488 12.632L13.9022 14.0462L13.9884 13.9601L14.0634 13.8641L12.488 12.632ZM12.632 13.112L12.2398 15.0732L12.2714 15.0795L12.3032 15.0848L12.632 13.112ZM13.4 13.256L13.0078 15.2172L13.0078 15.2172L13.4 13.256ZM15.128 14.024L14.1798 15.7849L14.2196 15.8064L14.2604 15.826L15.128 14.024ZM17.432 15.656L16.0178 17.0702L16.035 17.0875L16.0527 17.1043L17.432 15.656ZM19.352 18.68L17.5226 19.4883L17.5341 19.5143L17.5463 19.5399L19.352 18.68ZM20.456 22.52L18.4622 22.6774L18.4625 22.6816L20.456 22.52ZM20.744 25.736L18.7539 25.935L18.7539 25.935L20.744 25.736ZM21.464 29.864L19.5084 30.2831L19.512 30.2997L19.5158 30.3163L21.464 29.864ZM22.904 33.08L24.1534 31.5183L24.0749 31.4555L23.9905 31.4009L22.904 33.08ZM21.032 35L21.5987 36.918L21.6186 36.9121L21.6384 36.9059L21.032 35ZM15.368 34.28L13.3952 34.6088L13.3971 34.6202L13.3991 34.6316L15.368 34.28ZM15.032 27.416H13.032V27.4337L13.0323 27.4514L15.032 27.416ZM13.592 18.2L11.903 19.2711L11.9062 19.2761L13.592 18.2ZM11.336 15.992L10.7395 17.901L10.8055 17.9216L10.8728 17.9376L11.336 15.992ZM10.52 15.752V13.752H10.0868L9.69239 13.9313L10.52 15.752ZM9.992 15.992L9.1644 14.1713L8.7615 14.3544L8.47349 14.6904L9.992 15.992ZM8.168 18.584L9.92894 19.5322L9.92894 19.5322L8.168 18.584ZM7.448 20.408L9.42474 20.7121L9.43532 20.6434L9.44109 20.5741L7.448 20.408ZM7.352 21.032L5.37526 20.7279L5.352 20.8791V21.032H7.352ZM7.928 32.6L5.94225 32.8383L5.94769 32.8837L5.95521 32.9288L7.928 32.6ZM5.768 35.096L5.12346 33.2027L5.11096 33.207L5.768 35.096ZM0.872 34.712L-0.948733 33.8844L-0.992171 33.98L-1.02537 34.0795L0.872 34.712ZM1.544 27.752L-0.454376 27.6714L-0.45469 27.6792L-0.454943 27.687L1.544 27.752ZM1.592 9.032L-0.404023 9.15806L-0.403981 9.15873L1.592 9.032ZM0.632 3.56L2.24211 2.3736L2.22376 2.34869L2.20464 2.32436L0.632 3.56ZM2.552 1.4L2.06692 -0.540308L2.05799 -0.538031L2.552 1.4ZM8.072 1.448L10.0661 1.60139L10.072 1.52481V1.448H8.072ZM8.024 2.072L10.0097 2.31101L10.0148 2.26829L10.0181 2.22539L8.024 2.072ZM8.936 12.008L7.336 10.808L7.31127 10.841L7.28792 10.8749L8.936 12.008ZM10.952 9.224L9.34285 8.0363L9.33359 8.04884L9.32453 8.06152L10.952 9.224ZM15.259 6.86174C16.0608 5.84408 16.8578 4.90962 17.6496 4.0569L14.7184 1.3351C13.8462 2.27438 12.9792 3.29192 12.117 4.38625L15.259 6.86174ZM17.6478 4.05884C18.0403 3.6373 18.3655 3.32942 18.6265 3.11591C18.7556 3.01026 18.8589 2.93604 18.9373 2.88576C18.9759 2.861 19.0057 2.84386 19.0269 2.83253C19.0482 2.82115 19.0583 2.81703 19.0575 2.81735L17.5345 -0.881357C16.5595 -0.479888 15.605 0.382844 14.7202 1.33316L17.6478 4.05884ZM19.0575 2.81736C19.0564 2.81781 19.2359 2.7563 19.7339 2.70579C20.1946 2.65904 20.8137 2.632 21.608 2.632V-1.368C20.7383 -1.368 19.9734 -1.33904 19.3301 -1.27379C18.7241 -1.2123 18.0796 -1.10581 17.5345 -0.88136L19.0575 2.81736ZM21.608 2.632C22.3991 2.632 22.8237 2.68548 22.9949 2.72828C23.0908 2.75224 22.9517 2.73574 22.748 2.583C22.6325 2.49638 22.4664 2.34327 22.3285 2.10203C22.1832 1.8478 22.104 1.55489 22.104 1.256H26.104C26.104 0.366287 25.616 -0.266027 25.148 -0.617C24.7363 -0.925741 24.2852 -1.07224 23.9651 -1.15229C23.3043 -1.31748 22.4809 -1.368 21.608 -1.368V2.632ZM22.104 1.256C22.104 0.574764 22.4736 0.177936 22.5578 0.0937856C22.6615 -0.00994399 22.7156 -0.0248474 22.6183 0.028207L24.5337 3.53979C24.7884 3.40084 25.1065 3.20194 25.3862 2.92221C25.6464 2.66206 26.104 2.09724 26.104 1.256H22.104ZM22.6183 0.028207C22.1776 0.268569 21.6324 0.617194 21.0066 1.04538L23.2654 4.34661C23.8556 3.9428 24.2704 3.68343 24.5337 3.53979L22.6183 0.028207ZM21.0066 1.04538C20.2383 1.57109 18.8334 2.83331 16.9179 4.65459L19.6741 7.5534C21.6626 5.66268 22.8177 4.65291 23.2654 4.34661L21.0066 1.04538ZM16.906 4.66602C14.9086 6.59683 12.9114 8.8441 10.9126 11.3999L14.0634 13.8641C15.9686 11.4279 17.8434 9.32317 19.686 7.54197L16.906 4.66602ZM11.0738 11.2178C10.5024 11.7891 10.392 12.4837 10.392 12.92H14.392C14.392 13.1003 14.3456 13.6029 13.9022 14.0462L11.0738 11.2178ZM10.392 12.92C10.392 13.621 10.7249 14.2195 11.2026 14.6017C11.5977 14.9178 12.0128 15.0278 12.2398 15.0732L13.0242 11.1508C13.0913 11.1642 13.3863 11.2262 13.7014 11.4783C13.8746 11.6168 14.0589 11.8176 14.1959 12.0916C14.3348 12.3694 14.392 12.6568 14.392 12.92H10.392ZM12.3032 15.0848C12.4646 15.1117 12.6968 15.155 13.0078 15.2172L13.7922 11.2948C13.4632 11.229 13.1834 11.1763 12.9608 11.1392L12.3032 15.0848ZM13.0078 15.2172C12.9453 15.2047 13.0064 15.211 13.2597 15.3236C13.485 15.4237 13.7887 15.5743 14.1798 15.7849L16.0762 12.2631C15.2837 11.8363 14.4515 11.4267 13.7922 11.2948L13.0078 15.2172ZM14.2604 15.826C14.9235 16.1453 15.5063 16.5588 16.0178 17.0702L18.8462 14.2418C18.0137 13.4092 17.0605 12.7347 15.9956 12.222L14.2604 15.826ZM16.0527 17.1043C16.4521 17.4846 16.963 18.2219 17.5226 19.4883L21.1814 17.8717C20.525 16.3861 19.7559 15.1074 18.8113 14.2077L16.0527 17.1043ZM17.5463 19.5399C18.1036 20.7103 18.3892 21.7522 18.4622 22.6774L22.4498 22.3626C22.3308 20.8558 21.8804 19.3377 21.1577 17.8201L17.5463 19.5399ZM18.4625 22.6816C18.5593 23.8754 18.6564 24.9601 18.7539 25.935L22.7341 25.537C22.6396 24.5919 22.5447 23.5326 22.4495 22.3584L18.4625 22.6816ZM18.7539 25.935C18.8612 27.0078 19.12 28.4706 19.5084 30.2831L23.4196 29.4449C23.04 27.6734 22.8188 26.3842 22.7341 25.537L18.7539 25.935ZM19.5158 30.3163C19.7386 31.2758 19.9973 32.1294 20.3106 32.8293C20.5977 33.4705 21.0509 34.2631 21.8175 34.7591L23.9905 31.4009C24.2131 31.5449 24.1543 31.6255 23.9614 31.1947C23.7948 30.8226 23.6055 30.2442 23.4122 29.4117L19.5158 30.3163ZM21.6546 34.6417C21.5414 34.5512 21.4021 34.4044 21.2951 34.1904C21.1862 33.9726 21.144 33.7512 21.144 33.56H25.144C25.144 32.715 24.7512 31.9965 24.1534 31.5183L21.6546 34.6417ZM21.144 33.56C21.144 33.1999 21.2752 32.9296 21.381 32.7805C21.4734 32.6502 21.5418 32.6157 21.4893 32.6515C21.4434 32.6828 21.3394 32.7444 21.1515 32.827C20.9671 32.908 20.7279 32.998 20.4256 33.0941L21.6384 36.9059C22.4129 36.6594 23.1548 36.3573 23.7427 35.9565C24.2751 35.5934 25.144 34.8224 25.144 33.56H21.144ZM20.4653 33.082C19.1876 33.4595 18.1193 33.624 17.24 33.624V37.624C18.6007 37.624 20.0604 37.3725 21.5987 36.918L20.4653 33.082ZM17.24 33.624C17.1014 33.624 17.0333 33.6093 17.0173 33.6052C17.005 33.6019 17.0514 33.6124 17.1224 33.6634C17.1977 33.7174 17.2608 33.7887 17.3026 33.8603C17.3411 33.9264 17.3424 33.9597 17.3369 33.9284L13.3991 34.6316C13.5526 35.4908 13.9777 36.3297 14.7896 36.9126C15.5567 37.4634 16.4459 37.624 17.24 37.624V33.624ZM17.3408 33.9512C17.2103 33.168 17.0965 31.0446 17.0317 27.3806L13.0323 27.4514C13.0955 31.0194 13.2057 33.472 13.3952 34.6088L17.3408 33.9512ZM17.032 27.416V25.496H13.032V27.416H17.032ZM17.032 25.496C17.032 22.04 16.5558 19.126 15.2778 17.1239L11.9062 19.2761C12.5482 20.282 13.032 22.232 13.032 25.496H17.032ZM15.281 17.1289C14.8176 16.3982 14.3278 15.7484 13.8029 15.2347C13.2929 14.7355 12.6267 14.2434 11.7992 14.0464L10.8728 17.9376C10.7173 17.9006 10.7631 17.8565 11.0051 18.0933C11.2322 18.3156 11.5344 18.6898 11.903 19.2711L15.281 17.1289ZM11.9325 14.083C11.6735 14.0021 11.4647 13.9381 11.3123 13.8933C11.238 13.8714 11.1636 13.8501 11.098 13.8328C11.0668 13.8247 11.0202 13.8127 10.9681 13.8014C10.9426 13.7958 10.8996 13.7869 10.8473 13.7785C10.818 13.7737 10.687 13.752 10.52 13.752V17.752C10.4257 17.752 10.3512 17.7452 10.3121 17.741C10.2685 17.7364 10.2332 17.7311 10.2103 17.7274C10.1658 17.7202 10.1324 17.7131 10.1184 17.7101C10.0893 17.7038 10.0732 17.6993 10.08 17.7011C10.0904 17.7039 10.122 17.7126 10.1837 17.7307C10.3033 17.7659 10.4865 17.8219 10.7395 17.901L11.9325 14.083ZM9.69239 13.9313L9.1644 14.1713L10.8196 17.8127L11.3476 17.5727L9.69239 13.9313ZM8.47349 14.6904C7.63422 15.6696 6.9373 16.6511 6.40706 17.6358L9.92894 19.5322C10.2947 18.8529 10.8138 18.1064 11.5105 17.2936L8.47349 14.6904ZM6.40706 17.6358C5.96518 18.4564 5.52534 19.3968 5.45491 20.2419L9.44109 20.5741C9.43343 20.666 9.42159 20.6282 9.51231 20.3983C9.59383 20.1918 9.72737 19.9065 9.92894 19.5322L6.40706 17.6358ZM5.47126 20.1039L5.37526 20.7279L9.32874 21.3361L9.42474 20.7121L5.47126 20.1039ZM5.352 21.032C5.352 25.5948 5.54585 29.535 5.94225 32.8383L9.91375 32.3617C9.54215 29.265 9.352 25.4932 9.352 21.032H5.352ZM5.95521 32.9288C5.98619 33.1147 6.0073 33.2492 6.0201 33.3388C6.02659 33.3843 6.02943 33.4076 6.03023 33.4149C6.03062 33.4183 6.02964 33.4102 6.02839 33.3939C6.02757 33.3833 6.024 33.3368 6.024 33.272H10.024C10.024 33.0689 9.99008 32.8444 9.9799 32.7732C9.9607 32.6388 9.93381 32.4693 9.90079 32.2712L5.95521 32.9288ZM6.024 33.272C6.024 33.0733 6.08157 32.903 6.14782 32.7874C6.20601 32.6859 6.2493 32.6629 6.20256 32.7007C6.1564 32.7381 6.05367 32.8093 5.86566 32.9026C5.68025 32.9947 5.43627 33.0962 5.12347 33.2027L6.41253 36.9893C7.2629 36.6998 8.07868 36.3277 8.71744 35.8113C9.37734 35.2777 10.024 34.432 10.024 33.272H6.024ZM5.11096 33.207C3.73558 33.6854 2.76071 33.864 2.12 33.864V37.864C3.39929 37.864 4.85642 37.5306 6.42504 36.985L5.11096 33.207ZM2.12 33.864C1.70929 33.864 1.60591 33.8264 1.6688 33.8459C1.70133 33.856 1.93005 33.9265 2.17784 34.1572C2.31258 34.2827 2.4576 34.4604 2.56651 34.697C2.67738 34.9378 2.728 35.1906 2.728 35.432H-1.272C-1.272 36.9876 0.0740342 37.5391 0.483202 37.6661C1.01009 37.8296 1.60271 37.864 2.12 37.864V33.864ZM2.728 35.432C2.728 35.4667 2.72587 35.4899 2.72477 35.4999C2.72364 35.51 2.72312 35.5105 2.72516 35.5002C2.72959 35.4781 2.74165 35.4276 2.76937 35.3445L-1.02537 34.0795C-1.15464 34.4674 -1.272 34.9375 -1.272 35.432H2.728ZM2.69273 35.5396C2.87971 35.1283 2.98788 34.6494 3.0624 34.2351C3.14361 33.7837 3.21188 33.2458 3.27074 32.6362C3.38865 31.415 3.47836 29.8029 3.54294 27.817L-0.454943 27.687C-0.518361 29.6371 -0.604654 31.153 -0.710742 32.2518C-0.763881 32.8022 -0.819614 33.2223 -0.874403 33.5269C-0.935882 33.8686 -0.975707 33.9437 -0.948733 33.8844L2.69273 35.5396ZM3.54238 27.8326C3.70323 23.8435 3.784 20.2161 3.784 16.952H-0.216C-0.216 20.1519 -0.295225 23.7245 -0.454376 27.6714L3.54238 27.8326ZM3.784 16.952C3.784 13.668 3.71977 10.981 3.58798 8.90527L-0.403981 9.15873C-0.279773 11.115 -0.216 13.708 -0.216 16.952H3.784ZM3.58802 8.90593C3.48992 7.35269 3.35613 6.05421 3.17791 5.0384C3.08884 4.53065 2.98263 4.05805 2.85117 3.64174C2.72795 3.25157 2.54399 2.78329 2.24211 2.3736L-0.978111 4.7464C-1.05599 4.64071 -1.03195 4.62843 -0.963165 4.84626C-0.902634 5.03794 -0.832835 5.32535 -0.761914 5.7296C-0.620127 6.53778 -0.497923 7.67131 -0.404023 9.15806L3.58802 8.90593ZM2.20464 2.32436C2.13028 2.22972 2.07145 2.15143 2.02608 2.08818C1.97975 2.02361 1.95398 1.98377 1.94256 1.9651C1.92758 1.94058 1.94857 1.97095 1.97893 2.04272C1.99492 2.0805 2.02218 2.15003 2.04699 2.24478C2.07054 2.33467 2.104 2.49256 2.104 2.696H-1.896C-1.896 3.12705 -1.76367 3.46244 -1.70493 3.60128C-1.63057 3.77705 -1.54358 3.93142 -1.47056 4.0509C-1.32346 4.29161 -1.13701 4.54571 -0.940637 4.79564L2.20464 2.32436ZM2.104 2.696C2.104 3.23931 1.84576 3.59106 1.72354 3.72288C1.61361 3.84143 1.55119 3.85683 1.65178 3.80357C1.84931 3.699 2.27982 3.53333 3.04601 3.33803L2.05799 -0.538031C1.19218 -0.317334 0.398694 -0.0590026 -0.219776 0.268422C-0.527187 0.43117 -0.895606 0.664567 -1.20954 1.00312C-1.53576 1.35493 -1.896 1.92869 -1.896 2.696H2.104ZM3.03707 3.34028C4.63955 2.93966 5.78404 2.776 6.536 2.776V-1.224C5.30396 -1.224 3.79245 -0.971669 2.06693 -0.540287L3.03707 3.34028ZM6.536 2.776C6.72396 2.776 6.84756 2.78659 6.91939 2.79706C6.99765 2.80848 6.97165 2.81362 6.88636 2.77631C6.80008 2.73856 6.58317 2.62601 6.38514 2.36608C6.16706 2.07986 6.072 1.74559 6.072 1.448H10.072C10.072 0.926409 9.91294 0.396138 9.56686 -0.0580895C9.24083 -0.486012 8.83192 -0.738568 8.48964 -0.888318C7.85019 -1.16807 7.13223 -1.224 6.536 -1.224V2.776ZM6.07789 1.2946L6.02989 1.9186L10.0181 2.22539L10.0661 1.60139L6.07789 1.2946ZM6.03833 1.83298C5.61165 5.37776 5.4 9.15424 5.4 13.16H9.4C9.4 9.29376 9.60435 5.67824 10.0097 2.31101L6.03833 1.83298ZM5.4 13.16C5.4 13.3944 5.4151 13.8229 5.59105 14.2628C5.68596 14.5001 5.87021 14.8486 6.22763 15.1464C6.62047 15.4738 7.10452 15.64 7.592 15.64V11.64C8.01548 11.64 8.44353 11.7862 8.78837 12.0736C9.09779 12.3314 9.24204 12.6199 9.30495 12.7772C9.4169 13.0571 9.4 13.2456 9.4 13.16H5.4ZM7.592 15.64C8.29395 15.64 8.8128 15.3235 9.11048 15.0799C9.40996 14.8349 9.62915 14.5498 9.7841 14.3174L6.4559 12.0986C6.41886 12.1542 6.45404 12.0851 6.57753 11.9841C6.6992 11.8845 7.05006 11.64 7.592 11.64V15.64ZM9.7841 14.3174C9.96824 14.0412 10.234 13.6503 10.5841 13.1411L7.28792 10.8749C6.93403 11.3897 6.65576 11.7988 6.4559 12.0986L9.7841 14.3174ZM10.536 13.208C10.9357 12.6751 11.6202 11.7295 12.5795 10.3865L9.32453 8.06152C8.36383 9.4065 7.7043 10.3169 7.336 10.808L10.536 13.208ZM12.5611 10.4117C13.5435 9.08073 14.4426 7.89789 15.259 6.86174L12.117 4.38625C11.2694 5.4621 10.3445 6.67926 9.34285 8.0363L12.5611 10.4117ZM24.2056 35.336L22.2328 35.0072L22.2056 35.1705V35.336H24.2056ZM24.6376 13.496H22.6376V13.694L22.6765 13.8882L24.6376 13.496ZM29.0056 14.552L30.903 13.9195L30.8767 13.8406L30.8439 13.7642L29.0056 14.552ZM29.5336 14.6L30.9478 16.0142L30.9591 16.003L30.9701 15.9916L29.5336 14.6ZM39.0856 14.648L37.7743 16.1581L37.7743 16.1581L39.0856 14.648ZM40.5736 24.44L38.5836 24.241L38.5821 24.2551L38.5809 24.2692L40.5736 24.44ZM41.5816 35.048L39.9816 36.248L40.0004 36.273L40.0199 36.2974L41.5816 35.048ZM35.3896 25.256L37.3284 25.7472L37.3284 25.7472L35.3896 25.256ZM30.7816 16.856L29.2911 15.5224L29.2711 15.5448L29.2518 15.5677L30.7816 16.856ZM29.9176 18.968L31.9107 19.1341L31.9113 19.1275L29.9176 18.968ZM30.1576 32.072L32.1494 31.8909L32.1494 31.8909L30.1576 32.072ZM30.2536 33.128H32.2536V33.0373L32.2454 32.9469L30.2536 33.128ZM28.4776 35.192L27.7262 33.3385L27.6956 33.3509L27.6653 33.3644L28.4776 35.192ZM26.1784 35.6648C26.7779 32.0681 27.0696 27.8081 27.0696 22.904H23.0696C23.0696 27.6639 22.7854 31.6919 22.2328 35.0072L26.1784 35.6648ZM27.0696 22.904C27.0696 18.1195 26.933 14.7746 26.5988 13.1038L22.6765 13.8882C22.9183 15.0974 23.0696 18.0245 23.0696 22.904H27.0696ZM26.6376 13.496C26.6376 13.8063 26.5377 14.1501 26.3129 14.4424C26.109 14.7074 25.8854 14.823 25.7928 14.8631C25.7008 14.903 25.6661 14.9002 25.7335 14.8905C25.7945 14.8817 25.905 14.872 26.0776 14.872V10.872C25.5145 10.872 24.8233 10.9238 24.2024 11.1929C23.8699 11.337 23.4662 11.5826 23.1424 12.0036C22.7975 12.4519 22.6376 12.9777 22.6376 13.496H26.6376ZM26.0776 14.872C26.5691 14.872 26.8127 14.9661 26.9183 15.0267C26.9983 15.0726 27.0832 15.1435 27.1673 15.3398L30.8439 13.7642C30.4481 12.8405 29.805 12.0714 28.909 11.5573C28.0386 11.0579 27.0582 10.872 26.0776 10.872V14.872ZM27.1083 15.1845C27.2615 15.644 27.5754 16.0838 28.0606 16.375C28.5064 16.6424 28.9486 16.696 29.2456 16.696V12.696C29.4146 12.696 29.7529 12.7256 30.1186 12.945C30.5239 13.1882 30.7818 13.556 30.903 13.9195L27.1083 15.1845ZM29.2456 16.696C29.6819 16.696 30.3765 16.5856 30.9478 16.0142L28.1194 13.1858C28.5628 12.7424 29.0653 12.696 29.2456 12.696V16.696ZM30.9701 15.9916C31.4414 15.5051 32.3536 15.064 34.1416 15.064V11.064C31.7697 11.064 29.6099 11.6469 28.0971 13.2084L30.9701 15.9916ZM34.1416 15.064C35.8835 15.064 37.0176 15.501 37.7743 16.1581L40.397 13.1379C38.7216 11.683 36.5598 11.064 34.1416 11.064V15.064ZM37.7743 16.1581C38.4464 16.7418 38.9096 17.6618 38.9096 19.256H42.9096C42.9096 16.8182 42.1568 14.6662 40.397 13.1379L37.7743 16.1581ZM38.9096 19.256C38.9096 20.3717 38.8055 22.0217 38.5836 24.241L42.5637 24.639C42.7898 22.3783 42.9096 20.5723 42.9096 19.256H38.9096ZM38.5809 24.2692C38.388 26.5196 38.2856 28.2542 38.2856 29.432H42.2856C42.2856 28.4338 42.3752 26.8404 42.5663 24.6108L38.5809 24.2692ZM38.2856 29.432C38.2856 32.1523 38.7209 34.567 39.9816 36.248L43.1816 33.848C42.7144 33.225 42.2856 31.8957 42.2856 29.432H38.2856ZM40.0199 36.2974C39.945 36.2038 39.7736 35.9365 39.7736 35.528H43.7736C43.7736 34.7995 43.4743 34.2122 43.1434 33.7986L40.0199 36.2974ZM39.7736 35.528C39.7736 35.2502 39.8564 34.9252 40.065 34.6346C40.2592 34.3641 40.4824 34.2344 40.5954 34.182C40.7041 34.1315 40.7586 34.1293 40.7117 34.1365C40.6709 34.1428 40.5813 34.152 40.4296 34.152V38.152C40.9693 38.152 41.6569 38.0992 42.2798 37.81C42.6168 37.6536 43.0081 37.3939 43.3143 36.9674C43.6349 36.5208 43.7736 36.0138 43.7736 35.528H39.7736ZM40.4296 34.152C38.6988 34.152 37.7743 33.763 37.2929 33.3359C36.8571 32.9493 36.4776 32.2575 36.4776 30.872H32.4776C32.4776 33.0065 33.0902 34.9547 34.6384 36.3281C36.1409 37.661 38.1924 38.152 40.4296 38.152V34.152ZM36.4776 30.872C36.4776 29.7781 36.7331 28.097 37.3284 25.7472L33.4509 24.7648C32.8302 27.215 32.4776 29.2779 32.4776 30.872H36.4776ZM37.3284 25.7472C37.9455 23.3113 38.3016 21.2898 38.3016 19.784H34.3016C34.3016 20.7742 34.0498 22.4007 33.4509 24.7648L37.3284 25.7472ZM38.3016 19.784C38.3016 18.2793 37.9991 16.7788 37.0524 15.6312C36.0448 14.41 34.6101 13.944 33.1336 13.944V17.944C33.7691 17.944 33.9184 18.118 33.9669 18.1768C34.0761 18.3092 34.3016 18.7287 34.3016 19.784H38.3016ZM33.1336 13.944C31.6965 13.944 30.3074 14.3866 29.2911 15.5224L32.2721 18.1896C32.3439 18.1094 32.5227 17.944 33.1336 17.944V13.944ZM29.2518 15.5677C28.4686 16.4978 28.0209 17.5974 27.924 18.8085L31.9113 19.1275C31.9424 18.7386 32.0706 18.4302 32.3114 18.1443L29.2518 15.5677ZM27.9245 18.8019C27.8526 19.6653 27.8216 21.2181 27.8216 23.384H31.8216C31.8216 21.1979 31.8547 19.8067 31.9107 19.1341L27.9245 18.8019ZM27.8216 23.384C27.8216 26.7533 27.9349 29.7124 28.1658 32.2531L32.1494 31.8909C31.9324 29.5036 31.8216 26.6707 31.8216 23.384H27.8216ZM28.1658 32.2531L28.2618 33.3091L32.2454 32.9469L32.1494 31.8909L28.1658 32.2531ZM28.2536 33.128C28.2536 33.1295 28.2535 33.1224 28.2559 33.1088C28.2584 33.095 28.2626 33.0784 28.2692 33.0608C28.2836 33.0221 28.2991 33.0051 28.2936 33.0115C28.2723 33.0363 28.1362 33.1723 27.7262 33.3385L29.229 37.0455C30.7872 36.4138 32.2536 35.183 32.2536 33.128H28.2536ZM27.6653 33.3644C26.6612 33.8106 25.9399 33.96 25.4536 33.96V37.96C26.6953 37.96 27.99 37.5974 29.2899 37.0196L27.6653 33.3644ZM25.4536 33.96C25.3236 33.96 25.256 33.9515 25.2364 33.9482C25.2114 33.944 25.2866 33.9524 25.4121 34.0151C25.5453 34.0818 25.7654 34.2261 25.9477 34.4996C26.1384 34.7856 26.2056 35.09 26.2056 35.336H22.2056C22.2056 35.79 22.3249 36.2764 22.6195 36.7184C22.9058 37.1479 23.2819 37.4222 23.6232 37.5929C24.2491 37.9058 24.9355 37.96 25.4536 37.96V33.96ZM48.3215 9.32L48.2382 11.3183L48.2799 11.32H48.3215V9.32ZM47.1695 9.272L47.2528 7.27373L47.2111 7.272H47.1695V9.272ZM45.4895 9.896L47.1536 11.0054L47.1738 10.9752L47.1928 10.9442L45.4895 9.896ZM45.2495 5.192L43.9479 3.67348L43.92 3.69743L43.8929 3.72239L45.2495 5.192ZM49.7135 5.192L48.2993 6.60621L48.33 6.63694L48.362 6.6663L49.7135 5.192ZM49.8575 8.84L51.3441 10.1779L51.3756 10.1429L51.4054 10.1065L49.8575 8.84ZM44.4815 33.56L42.4837 33.4657L42.4815 33.5128V33.56H44.4815ZM45.0095 22.376L47.0073 22.4703L47.0095 22.4232V22.376H45.0095ZM44.0975 16.952L42.3825 17.981L42.3949 18.0017L42.4079 18.0221L44.0975 16.952ZM43.4255 16.232L44.4855 14.536L44.2837 14.4099L44.0579 14.3346L43.4255 16.232ZM45.5855 14.168L46.218 16.0654L46.218 16.0654L45.5855 14.168ZM50.3375 13.928H52.3375V13.8448L52.3306 13.7619L50.3375 13.928ZM50.0495 19.4L48.0536 19.2726L48.0529 19.2826L48.0524 19.2926L50.0495 19.4ZM50.3855 34.952L48.5825 35.8175L48.6227 35.9013L48.6705 35.981L50.3855 34.952ZM44.9615 35.096L44.0671 36.8849L44.0671 36.8849L44.9615 35.096ZM48.4048 7.32173L47.2528 7.27373L47.0862 11.2703L48.2382 11.3183L48.4048 7.32173ZM47.1695 7.272C46.144 7.272 44.6178 7.49646 43.7862 8.84781L47.1928 10.9442C47.1219 11.0594 47.0358 11.1487 46.9534 11.2117C46.8745 11.2721 46.8144 11.2967 46.7979 11.3028C46.7826 11.3085 46.8014 11.2997 46.8676 11.29C46.9331 11.2804 47.0317 11.272 47.1695 11.272V7.272ZM43.8254 8.78659C43.9197 8.64516 44.0858 8.44904 44.3525 8.28901C44.6327 8.12092 44.946 8.04 45.2495 8.04V12.04C46.1556 12.04 46.8046 11.5288 47.1536 11.0054L43.8254 8.78659ZM45.2495 8.04C45.49 8.04 45.7399 8.09332 45.9739 8.20643C46.2019 8.31671 46.3652 8.45951 46.4732 8.58138C46.6682 8.80136 46.7103 8.98164 46.6995 8.94531C46.6952 8.93064 46.6735 8.84466 46.6549 8.65598C46.637 8.47417 46.6255 8.23426 46.6255 7.928H42.6255C42.6255 8.68211 42.6759 9.44371 42.8635 10.0787C42.9567 10.3944 43.1288 10.8386 43.4798 11.2346C43.8822 11.6886 44.495 12.04 45.2495 12.04V8.04ZM46.6255 7.928C46.6255 7.28667 46.6735 6.86291 46.7314 6.60872C46.7595 6.48573 46.7815 6.44036 46.7785 6.44663C46.7756 6.45274 46.7297 6.54749 46.6061 6.6616L43.8929 3.72239C43.2514 4.31455 42.9724 5.10188 42.8316 5.71928C42.6815 6.37709 42.6255 7.12933 42.6255 7.928H46.6255ZM46.5511 6.71051C46.4803 6.77115 46.4758 6.74085 46.6443 6.69783C46.8124 6.6549 47.0889 6.616 47.5055 6.616V2.616C46.31 2.616 44.9515 2.81327 43.9479 3.67348L46.5511 6.71051ZM47.5055 6.616C47.9456 6.616 48.2193 6.65628 48.3687 6.69523C48.5237 6.73569 48.4398 6.7467 48.2993 6.60621L51.1277 3.77778C50.1354 2.78544 48.6625 2.616 47.5055 2.616V6.616ZM48.362 6.6663C48.2435 6.55764 48.2244 6.47014 48.2383 6.51426C48.2554 6.56815 48.2895 6.7209 48.2895 7.016H52.2895C52.2895 5.94596 52.0661 4.63544 51.065 3.71769L48.362 6.6663ZM48.2895 7.016C48.2895 7.3472 48.2609 7.55118 48.2353 7.65907C48.2086 7.77204 48.2035 7.70315 48.3096 7.57353L51.4054 10.1065C52.1526 9.19322 52.2895 7.98178 52.2895 7.016H48.2895ZM48.3709 7.50207C48.5195 7.33702 48.6579 7.29198 48.661 7.29104C48.6618 7.29078 48.6364 7.29864 48.5772 7.30624C48.5182 7.31379 48.4343 7.32 48.3215 7.32V11.32C49.2422 11.32 50.4801 11.1379 51.3441 10.1779L48.3709 7.50207ZM46.4793 33.6543L47.0073 22.4703L43.0117 22.2817L42.4837 33.4657L46.4793 33.6543ZM47.0095 22.376C47.0095 20.9816 46.9304 19.7466 46.7538 18.6964C46.5815 17.6716 46.2943 16.6827 45.7871 15.8819L42.4079 18.0221C42.5087 18.1813 42.6775 18.5764 42.8092 19.3596C42.9366 20.1174 43.0095 21.1144 43.0095 22.376H47.0095ZM45.8125 15.923C45.4956 15.3949 45.0654 14.8984 44.4855 14.536L42.3655 17.928C42.3333 17.9079 42.3201 17.8931 42.3234 17.8966C42.3276 17.9011 42.3492 17.9254 42.3825 17.981L45.8125 15.923ZM44.0579 14.3346C44.2455 14.3971 44.5558 14.5497 44.8095 14.888C45.0699 15.2352 45.1375 15.6003 45.1375 15.848H41.1375C41.1375 16.2877 41.2531 16.8128 41.6095 17.288C41.9592 17.7543 42.4135 18.0029 42.7931 18.1294L44.0579 14.3346ZM45.1375 15.848C45.1375 16.2056 45.0038 16.462 44.9149 16.5858C44.8384 16.6923 44.7952 16.704 44.8812 16.645C45.0623 16.5207 45.4692 16.315 46.218 16.0654L44.953 12.2706C44.0698 12.565 43.2527 12.9113 42.6178 13.347C42.0537 13.7341 41.1375 14.5401 41.1375 15.848H45.1375ZM46.218 16.0654C47.8456 15.5228 48.7567 15.352 49.1375 15.352V11.352C48.0463 11.352 46.5894 11.7252 44.953 12.2706L46.218 16.0654ZM49.1375 15.352C49.4104 15.352 49.348 15.395 49.148 15.299C49.0246 15.2398 48.8231 15.1141 48.6445 14.876C48.4569 14.6258 48.3653 14.3453 48.3444 14.0941L52.3306 13.7619C52.2458 12.7439 51.6031 12.0405 50.879 11.693C50.279 11.405 49.6326 11.352 49.1375 11.352V15.352ZM48.3375 13.928C48.3375 14.4882 48.2475 16.234 48.0536 19.2726L52.0454 19.5274C52.2355 16.55 52.3375 14.6478 52.3375 13.928H48.3375ZM48.0524 19.2926C47.8903 22.3079 47.8095 25.4799 47.8095 28.808H51.8095C51.8095 25.5441 51.8887 22.4441 52.0466 19.5074L48.0524 19.2926ZM47.8095 28.808C47.8095 30.4861 47.858 31.8912 47.9622 33.0027C48.0588 34.0332 48.2214 35.0653 48.5825 35.8175L52.1885 34.0865C52.1949 34.0999 52.151 34.0041 52.0938 33.7215C52.0403 33.4567 51.9886 33.0973 51.9448 32.6293C51.857 31.6928 51.8095 30.4259 51.8095 28.808H47.8095ZM48.6705 35.981C48.6114 35.8825 48.5295 35.691 48.5295 35.432H52.5295C52.5295 34.853 52.3516 34.3415 52.1005 33.923L48.6705 35.981ZM48.5295 35.432C48.5295 35.2341 48.567 35.0194 48.6554 34.8076C48.7432 34.5975 48.8636 34.4319 48.983 34.3093C49.2053 34.0811 49.4112 34.0128 49.4261 34.0077C49.4548 33.9979 49.4171 34.0139 49.2769 34.0299C49.1437 34.0451 48.9565 34.056 48.7055 34.056V38.056C49.3739 38.056 50.0976 38.0055 50.7209 37.7923C51.3149 37.5891 52.5295 36.9381 52.5295 35.432H48.5295ZM48.7055 34.056C47.8504 34.056 46.9071 33.8327 45.8559 33.3071L44.0671 36.8849C45.5759 37.6393 47.1286 38.056 48.7055 38.056V34.056ZM45.8559 33.3071C46.3796 33.569 46.5088 33.9902 46.5105 33.9955C46.5166 34.0152 46.5076 33.9927 46.4981 33.911C46.4889 33.8317 46.4815 33.7168 46.4815 33.56H42.4815C42.4815 34.0868 42.5268 34.6583 42.6925 35.1885C42.8542 35.7058 43.2234 36.463 44.0671 36.8849L45.8559 33.3071ZM59.6956 23H57.6956V23.025L57.6963 23.05L59.6956 23ZM59.9356 32.6H61.9356V32.575L61.935 32.55L59.9356 32.6ZM59.1196 37.928L57.2344 37.2603L57.2261 37.2837L57.2184 37.3072L59.1196 37.928ZM57.1996 41.432L55.7854 40.0178L55.7713 40.0319L55.7574 40.0463L57.1996 41.432ZM53.0716 44.216L52.6998 42.2509L52.6565 42.2591L52.6135 42.2692L53.0716 44.216ZM52.2556 44.408V46.408H52.4878L52.7137 46.3548L52.2556 44.408ZM51.5356 43.976L49.6383 43.3435L49.5356 43.6514V43.976H51.5356ZM51.7756 43.256L50.1547 42.0844L49.9752 42.3328L49.8783 42.6235L51.7756 43.256ZM55.2316 16.856L57.2285 16.7451L57.1236 14.856H55.2316V16.856ZM53.2156 17V19H53.3578L53.4985 18.9799L53.2156 17ZM52.6396 16.472L50.6458 16.3146L50.6396 16.3932V16.472H52.6396ZM52.7836 14.648L50.7959 14.4271L50.7923 14.4588L50.7898 14.4906L52.7836 14.648ZM55.1836 14.216V16.216H57.1836V14.216H55.1836ZM55.1836 11L53.1841 10.9579L53.1836 10.9789V11H55.1836ZM55.2796 6.44L57.2792 6.48209L57.2796 6.46105V6.44H55.2796ZM55.3756 5.72L53.4783 5.08754L53.454 5.16041L53.4353 5.23493L55.3756 5.72ZM56.4316 4.472L57.7652 5.96248L57.7864 5.94349L57.8071 5.9239L56.4316 4.472ZM59.1196 2.936L59.8274 4.80657L59.8493 4.79828L59.871 4.78948L59.1196 2.936ZM63.0076 3.464L63.6004 5.37413L63.7126 5.33932L63.8199 5.29162L63.0076 3.464ZM60.7036 5.96L58.8743 5.15167L58.8697 5.16189L58.8653 5.17216L60.7036 5.96ZM59.8396 14.216H57.8396V16.296L59.918 16.2145L59.8396 14.216ZM63.0556 13.976V11.976H62.8697L62.687 12.0103L63.0556 13.976ZM62.8636 15.992L61.1571 14.9491L61.1483 14.9635L61.1398 14.978L62.8636 15.992ZM61.6156 16.856V18.856H61.6781L61.7404 18.8521L61.6156 16.856ZM59.7916 16.808L59.8785 14.8099L57.8458 14.7215L57.7923 16.7554L59.7916 16.808ZM57.6963 23.05L57.9363 32.65L61.935 32.55L61.695 22.95L57.6963 23.05ZM57.9356 32.6C57.9356 34.4404 57.6868 35.9827 57.2344 37.2603L61.0049 38.5957C61.6404 36.8013 61.9356 34.7916 61.9356 32.6H57.9356ZM57.2184 37.3072C56.7579 38.7176 56.2453 39.5579 55.7854 40.0178L58.6138 42.8462C59.6899 41.7701 60.4574 40.2744 61.0208 38.5488L57.2184 37.3072ZM55.7574 40.0463C54.2606 41.6043 53.2493 42.1469 52.6998 42.2509L53.4434 46.1811C55.262 45.8371 57.0027 44.5237 58.6418 42.8177L55.7574 40.0463ZM52.6135 42.2692L51.7975 42.4612L52.7137 46.3548L53.5297 46.1628L52.6135 42.2692ZM52.2556 42.408C52.1503 42.408 52.4039 42.3806 52.7446 42.585C52.9448 42.7051 53.1669 42.9021 53.3289 43.1937C53.4895 43.4827 53.5356 43.7648 53.5356 43.976H49.5356C49.5356 44.7976 49.9431 45.5689 50.6866 46.015C51.2674 46.3634 51.8809 46.408 52.2556 46.408V42.408ZM53.433 44.6085L53.673 43.8885L49.8783 42.6235L49.6383 43.3435L53.433 44.6085ZM53.3966 44.4276C54.8624 42.3995 55.7897 39.1975 56.3823 35.1712C56.9862 31.0684 57.2796 25.8168 57.2796 19.448H53.2796C53.2796 25.7192 52.9891 30.7556 52.4249 34.5888C51.8495 38.4985 51.0249 40.8805 50.1547 42.0844L53.3966 44.4276ZM57.2796 19.448C57.2796 18.2877 57.2637 17.3785 57.2285 16.7451L53.2347 16.9669C53.2635 17.4855 53.2796 18.3043 53.2796 19.448H57.2796ZM55.2316 14.856C54.464 14.856 53.6975 14.9109 52.9328 15.0201L53.4985 18.9799C54.0777 18.8971 54.6552 18.856 55.2316 18.856V14.856ZM53.2156 15H53.1676V19H53.2156V15ZM53.1676 15C53.2999 15 53.7665 15.0344 54.1858 15.4538C54.6052 15.8731 54.6396 16.3397 54.6396 16.472H50.6396C50.6396 16.9563 50.7621 17.6869 51.3574 18.2822C51.9528 18.8776 52.6833 19 53.1676 19V15ZM54.6334 16.6294L54.7774 14.8054L50.7898 14.4906L50.6458 16.3146L54.6334 16.6294ZM54.7714 14.8689C54.7528 15.0358 54.6976 15.2535 54.5642 15.4786C54.4281 15.7084 54.2465 15.8846 54.0571 16.0064C53.8767 16.1223 53.7159 16.1723 53.6186 16.1942C53.5222 16.2159 53.462 16.216 53.4556 16.216V12.216C53.0624 12.216 52.4626 12.2762 51.8941 12.6416C51.2264 13.0709 50.8717 13.7446 50.7959 14.4271L54.7714 14.8689ZM53.4556 16.216H55.1836V12.216H53.4556V16.216ZM57.1836 14.216V11H53.1836V14.216H57.1836ZM57.1832 11.0421L57.2792 6.48209L53.2801 6.3979L53.1841 10.9579L57.1832 11.0421ZM57.2796 6.44C57.2796 6.40545 57.2847 6.32973 57.3159 6.20507L53.4353 5.23493C53.3385 5.62227 53.2796 6.02655 53.2796 6.44H57.2796ZM57.273 6.35246C57.2301 6.48115 57.1845 6.55125 57.1829 6.55375C57.1784 6.56097 57.1922 6.53848 57.2384 6.48388C57.3332 6.37186 57.4999 6.19991 57.7652 5.96248L55.098 2.98152C54.7554 3.28808 54.4421 3.59613 54.1849 3.90011C53.9541 4.17284 53.647 4.58127 53.4783 5.08754L57.273 6.35246ZM57.8071 5.9239C58.15 5.59908 58.7769 5.20405 59.8274 4.80657L58.4118 1.06543C57.0943 1.56394 55.9293 2.19292 55.0561 3.02009L57.8071 5.9239ZM59.871 4.78948C60.9309 4.35981 61.6692 4.216 62.1436 4.216V0.215999C60.9541 0.215999 59.6764 0.552191 58.3682 1.08252L59.871 4.78948ZM62.1436 4.216C62.2029 4.216 62.2473 4.21822 62.2787 4.22087C62.3102 4.22354 62.3241 4.22629 62.3231 4.22609C62.3223 4.22593 62.3006 4.22168 62.2634 4.20843C62.226 4.19515 62.1673 4.1708 62.096 4.12858C61.945 4.03908 61.7564 3.87914 61.6155 3.62852C61.4755 3.37975 61.4396 3.14331 61.4396 2.984H65.4396C65.4396 2.03863 64.9735 1.18416 64.1352 0.687415C63.4611 0.28796 62.7078 0.215999 62.1436 0.215999V4.216ZM61.4396 2.984C61.4396 2.52513 61.6296 2.14948 61.845 1.91007C62.0272 1.70771 62.192 1.63788 62.1953 1.63638L63.8199 5.29162C64.3224 5.06827 65.4396 4.40232 65.4396 2.984H61.4396ZM62.4148 1.55387C60.6915 2.08869 59.5882 3.53597 58.8743 5.15167L62.533 6.76833C63.0351 5.63203 63.4677 5.41531 63.6004 5.37413L62.4148 1.55387ZM58.8653 5.17216C58.1149 6.92316 57.8396 9.58993 57.8396 12.872H61.8396C61.8396 9.62607 62.1403 7.68484 62.5419 6.74784L58.8653 5.17216ZM57.8396 12.872V14.216H61.8396V12.872H57.8396ZM59.918 16.2145C61.5204 16.1516 62.7427 16.0695 63.4242 15.9417L62.687 12.0103C62.3445 12.0745 61.4228 12.1524 59.7613 12.2175L59.918 16.2145ZM63.0556 15.976C62.8191 15.976 62.5153 15.9228 62.2103 15.7485C61.9046 15.5738 61.7023 15.3372 61.5801 15.1277C61.4653 14.9309 61.4233 14.7638 61.4074 14.6817C61.3987 14.6369 61.3949 14.603 61.3933 14.5831C61.3924 14.5728 61.392 14.565 61.3918 14.56C61.3916 14.5549 61.3916 14.5522 61.3916 14.552H65.3916C65.3916 14.231 65.3564 13.6629 65.0352 13.1123C64.6173 12.3959 63.8721 11.976 63.0556 11.976V15.976ZM61.3916 14.552C61.3916 14.4456 61.4142 14.4233 61.3819 14.5115C61.3509 14.596 61.2849 14.7399 61.1571 14.9491L64.5702 17.0349C64.9874 16.3521 65.3916 15.4883 65.3916 14.552H61.3916ZM61.1398 14.978C61.0915 15.06 61.0912 15.0284 61.1732 14.9716C61.2147 14.9429 61.2677 14.9146 61.3296 14.8933C61.3914 14.872 61.4473 14.8626 61.4909 14.8599L61.7404 18.8521C63.072 18.7689 64.0188 17.9728 64.5875 17.006L61.1398 14.978ZM61.6156 14.856C61.1755 14.856 60.5991 14.8412 59.8785 14.8099L59.7048 18.8061C60.4562 18.8388 61.0957 18.856 61.6156 18.856V14.856ZM57.7923 16.7554C57.728 19.1981 57.6956 21.2808 57.6956 23H61.6956C61.6956 21.3272 61.7272 19.2819 61.7909 16.8606L57.7923 16.7554ZM68.1875 22.808H66.1875V22.848L66.1891 22.8879L68.1875 22.808ZM68.2355 24.008H70.2355V23.968L70.2339 23.9281L68.2355 24.008ZM68.6195 24.296V26.296H68.713L68.8062 26.2873L68.6195 24.296ZM71.3075 23.528L72.2601 25.2866L72.2879 25.2715L72.3152 25.2556L71.3075 23.528ZM73.0355 22.04L74.6694 23.1934L74.6921 23.1613L74.7134 23.1284L73.0355 22.04ZM74.2835 18.968L72.2904 18.8019L72.2896 18.8111L72.289 18.8203L74.2835 18.968ZM74.3315 18.392L76.3246 18.5581L76.3315 18.4752V18.392H74.3315ZM69.7715 17.144L71.3715 18.344L71.3855 18.3254L71.399 18.3065L69.7715 17.144ZM77.8835 32.408L76.1323 31.4418L76.1264 31.4527L76.1205 31.4636L77.8835 32.408ZM76.2035 34.424L77.3329 36.0746L77.3417 36.0686L77.3504 36.0625L76.2035 34.424ZM74.0435 35.432L74.6235 37.3461L74.6317 37.3436L74.0435 35.432ZM65.0675 32.888L66.7559 31.816L66.7559 31.816L65.0675 32.888ZM65.4995 16.856L63.8287 15.7568L63.8236 15.7645L63.8186 15.7722L65.4995 16.856ZM78.5075 16.232L76.7243 17.1377L76.7363 17.1613L76.7489 17.1846L78.5075 16.232ZM79.0355 20.072L81.0083 20.4008L81.0103 20.3885L81.0122 20.3761L79.0355 20.072ZM76.8275 24.008L75.4133 22.5938L75.4133 22.5938L76.8275 24.008ZM73.8035 25.832L73.0312 23.9871L73.0312 23.9871L73.8035 25.832ZM68.9555 26.984V28.984H69.0587L69.1613 28.9734L68.9555 26.984ZM68.8595 28.616L66.9621 29.2485L66.9839 29.3138L67.0101 29.3775L68.8595 28.616ZM69.5795 30.008L67.9154 31.1174L67.9587 31.1823L68.0069 31.2436L69.5795 30.008ZM76.2035 30.008L77.5681 31.4701L77.5714 31.4671L76.2035 30.008ZM77.4515 28.232L75.6626 27.3376L75.6461 27.3707L75.6308 27.4044L77.4515 28.232ZM78.4595 28.376L80.3391 27.6925L80.3391 27.6925L78.4595 28.376ZM66.1891 22.8879L66.2371 24.0879L70.2339 23.9281L70.1859 22.7281L66.1891 22.8879ZM66.2355 24.008C66.2355 24.592 66.4605 25.3208 67.1315 25.824C67.6943 26.2461 68.2992 26.296 68.6195 26.296V22.296C68.6838 22.296 69.0967 22.2979 69.5315 22.624C70.0745 23.0312 70.2355 23.616 70.2355 24.008H66.2355ZM68.8062 26.2873C70.0516 26.1705 71.2168 25.8517 72.2601 25.2866L70.3549 21.7694C69.8622 22.0363 69.2354 22.2295 68.4328 22.3047L68.8062 26.2873ZM72.3152 25.2556C73.2519 24.7092 74.0747 24.0359 74.6694 23.1934L71.4016 20.8866C71.2283 21.1321 70.8991 21.4508 70.2998 21.8004L72.3152 25.2556ZM74.7134 23.1284C75.5617 21.8206 76.1783 20.4627 76.278 19.1157L72.289 18.8203C72.2607 19.2012 72.0453 19.8914 71.3576 20.9516L74.7134 23.1284ZM76.2766 19.1341L76.3246 18.5581L72.3384 18.2259L72.2904 18.8019L76.2766 19.1341ZM76.3315 18.392C76.3315 17.3159 76.1261 16.1391 75.3801 15.2021C74.5647 14.1783 73.4001 13.8 72.2675 13.8V17.8C72.4056 17.8 72.4341 17.8219 72.3982 17.8069C72.3502 17.7868 72.2913 17.7445 72.2509 17.6939C72.2181 17.6526 72.2395 17.6583 72.2694 17.7711C72.3004 17.8876 72.3315 18.0862 72.3315 18.392H76.3315ZM72.2675 13.8C70.5426 13.8 69.1263 14.6063 68.144 15.9815L71.399 18.3065C71.6967 17.8897 71.9444 17.8 72.2675 17.8V13.8ZM68.1715 15.944C66.7792 17.8003 66.1875 20.1552 66.1875 22.808H70.1875C70.1875 20.7248 70.6518 19.3037 71.3715 18.344L68.1715 15.944ZM76.6515 29.192C76.6515 30.1204 76.4584 30.8508 76.1323 31.4418L79.6347 33.3742C80.3326 32.1092 80.6515 30.6956 80.6515 29.192H76.6515ZM76.1205 31.4636C75.7456 32.1634 75.3742 32.5632 75.0566 32.7855L77.3504 36.0625C78.3128 35.3888 79.0614 34.4446 79.6465 33.3524L76.1205 31.4636ZM75.0741 32.7734C74.6593 33.0572 74.1288 33.3132 73.4553 33.5204L74.6317 37.3436C75.6222 37.0388 76.5317 36.6228 77.3329 36.0746L75.0741 32.7734ZM73.4635 33.518C72.5681 33.7893 71.7562 33.912 71.0195 33.912V37.912C72.2028 37.912 73.4069 37.7147 74.6235 37.346L73.4635 33.518ZM71.0195 33.912C68.9143 33.912 67.6176 33.1732 66.7559 31.816L63.3791 33.96C65.0774 36.6348 67.7487 37.912 71.0195 37.912V33.912ZM66.7559 31.816C65.7321 30.2035 65.1475 28.0443 65.1475 25.208H61.1475C61.1475 28.5797 61.8429 31.5405 63.3791 33.96L66.7559 31.816ZM65.1475 25.208C65.1475 22.4229 65.8382 20.0216 67.1804 17.9397L63.8186 15.7722C62.0248 18.5544 61.1475 21.7211 61.1475 25.208H65.1475ZM67.1703 17.9552C68.3633 16.1419 70.0861 15.208 72.6515 15.208V11.208C68.8809 11.208 65.8357 12.7061 63.8287 15.7568L67.1703 17.9552ZM72.6515 15.208C75.0229 15.208 76.1394 15.9862 76.7243 17.1377L80.2907 15.3263C78.8276 12.4458 76.0401 11.208 72.6515 11.208V15.208ZM76.7489 17.1846C77.044 17.7294 77.1315 18.1395 77.1315 18.44H81.1315C81.1315 17.3325 80.803 16.2706 80.2661 15.2794L76.7489 17.1846ZM77.1315 18.44C77.1315 19.0626 77.101 19.4936 77.0588 19.7679L81.0122 20.3761C81.098 19.8184 81.1315 19.1614 81.1315 18.44H77.1315ZM77.0627 19.7432C77.0634 19.7391 77.0588 19.7667 77.0393 19.833C77.0203 19.8973 76.9913 19.9841 76.9489 20.0962C76.8634 20.3223 76.7367 20.6154 76.5605 20.9825L80.1665 22.7135C80.555 21.9041 80.8936 21.0892 81.0083 20.4008L77.0627 19.7432ZM76.5605 20.9825C76.2761 21.5749 75.8969 22.1102 75.4133 22.5938L78.2417 25.4222C79.0381 24.6258 79.6829 23.7211 80.1665 22.7135L76.5605 20.9825ZM75.4133 22.5938C75.0384 22.9686 74.3028 23.4548 73.0312 23.9871L74.5758 27.6769C76.0562 27.0572 77.3366 26.3274 78.2417 25.4222L75.4133 22.5938ZM73.0312 23.9871C71.8746 24.4713 70.4574 24.818 68.7497 24.9946L69.1613 28.9734C71.1656 28.766 72.9804 28.3447 74.5758 27.6769L73.0312 23.9871ZM68.9555 24.984C68.5799 24.984 67.9247 25.0604 67.3505 25.5628C66.7252 26.1099 66.5715 26.8251 66.5715 27.32H70.5715C70.5715 27.5909 70.4818 28.1381 69.9845 28.5732C69.5383 28.9636 69.0751 28.984 68.9555 28.984V24.984ZM66.5715 27.32C66.5715 27.9512 66.7603 28.6429 66.9621 29.2485L70.7569 27.9835C70.6752 27.7387 70.6246 27.5556 70.5959 27.4261C70.5646 27.2854 70.5715 27.2624 70.5715 27.32H66.5715ZM67.0101 29.3775C67.2714 30.0119 67.5696 30.5988 67.9154 31.1174L71.2436 28.8986C71.0774 28.6492 70.8956 28.3081 70.7089 27.8545L67.0101 29.3775ZM68.0069 31.2436C69.1697 32.7237 70.8515 33.352 72.6995 33.352V29.352C71.7955 29.352 71.3973 29.0843 71.1521 28.7724L68.0069 31.2436ZM72.6995 33.352C74.5554 33.352 76.2187 32.7296 77.5681 31.4701L74.8389 28.5459C74.2683 29.0784 73.5956 29.352 72.6995 29.352V33.352ZM77.5714 31.4671C78.2927 30.7908 78.8551 29.9773 79.2722 29.0596L75.6308 27.4044C75.4079 27.8947 75.1383 28.2652 74.8356 28.5489L77.5714 31.4671ZM79.2404 29.1264C79.223 29.1612 79.1339 29.3321 78.9169 29.5057C78.6678 29.705 78.3213 29.848 77.9315 29.848V25.848C76.6402 25.848 75.9433 26.7762 75.6626 27.3376L79.2404 29.1264ZM77.9315 29.848C77.4518 29.848 77.0587 29.6356 76.8173 29.3942C76.7131 29.29 76.6521 29.1965 76.6213 29.1429C76.6051 29.1149 76.5946 29.0932 76.5885 29.0799C76.5854 29.073 76.5832 29.0678 76.5819 29.0645C76.5812 29.0628 76.5807 29.0616 76.5804 29.0607C76.5802 29.0603 76.5801 29.06 76.58 29.0598C76.58 29.0596 76.5799 29.0595 76.5799 29.0595L80.3391 27.6925C80.1408 27.1473 79.4909 25.848 77.9315 25.848V29.848ZM76.5799 29.0595C76.6255 29.1848 76.6475 29.2631 76.6567 29.3021C76.661 29.3203 76.6603 29.3209 76.6583 29.3063C76.6564 29.2926 76.6515 29.2527 76.6515 29.192H80.6515C80.6515 28.6381 80.4859 28.0961 80.3391 27.6925L76.5799 29.0595ZM96.5634 8.408L94.5798 8.15206L94.5634 8.2795V8.408H96.5634ZM96.7554 6.92L98.7389 7.17594L98.7554 7.0485V6.92H96.7554ZM95.0274 4.088L95.7067 2.20689L95.6732 2.19482L95.6394 2.18394L95.0274 4.088ZM90.4194 4.136L91.1766 5.98709L91.2121 5.97259L91.247 5.95673L90.4194 4.136ZM88.8834 5.24L90.5033 6.41304L90.5108 6.40248L88.8834 5.24ZM87.7314 8.168L85.7401 7.98132L85.7314 8.07445V8.168H87.7314ZM89.3634 11.336L88.092 12.8799L88.1057 12.8912L88.1196 12.9022L89.3634 11.336ZM93.2994 13.64L92.4977 15.4723L92.5205 15.4823L92.5436 15.4917L93.2994 13.64ZM97.9554 15.752L97.0609 17.5409L97.0683 17.5445L97.0756 17.5481L97.9554 15.752ZM101.939 19.064L100.344 20.2697L100.344 20.2697L101.939 19.064ZM99.8274 33.08L98.5953 31.5045L98.5854 31.5123L99.8274 33.08ZM83.5554 33.896L82.405 35.5321L82.4195 35.5423L82.4342 35.5522L83.5554 33.896ZM81.0114 25.016L79.1731 24.2282L79.166 24.2447L79.1592 24.2614L81.0114 25.016ZM82.3554 23.048L83.6166 24.6002L83.6219 24.5959L82.3554 23.048ZM85.2354 21.656L85.3831 23.6505L85.3923 23.6499L85.4015 23.6491L85.2354 21.656ZM85.8114 21.608V19.608H85.7282L85.6453 19.6149L85.8114 21.608ZM88.2594 22.28L87.2195 23.9884L87.2471 24.0052L87.2753 24.0211L88.2594 22.28ZM88.7394 25.016L87.6912 23.3127L87.6912 23.3127L88.7394 25.016ZM87.6354 26.168L85.9394 25.108L85.9149 25.1472L85.8922 25.1875L87.6354 26.168ZM87.1554 27.464L89.1231 27.8218L89.1391 27.734L89.1472 27.6451L87.1554 27.464ZM87.0594 27.992L85.0916 27.6342L85.0594 27.8117V27.992H87.0594ZM89.7474 31.88L89.0747 33.7635L89.0867 33.7677L89.7474 31.88ZM95.5074 30.632L94.1144 29.1968L94.1037 29.2072L94.0932 29.2178L95.5074 30.632ZM94.6434 21.848L95.8234 20.2332L95.8166 20.2283L95.8098 20.2234L94.6434 21.848ZM90.5634 19.592L89.7854 21.4345L89.7926 21.4375L89.7999 21.4405L90.5634 19.592ZM87.6354 18.296L88.5298 16.5071L88.5298 16.5071L87.6354 18.296ZM86.0034 17.384L84.9605 19.0906L84.9605 19.0906L86.0034 17.384ZM84.0834 15.896L85.4287 14.4161L85.4147 14.4033L85.4004 14.3908L84.0834 15.896ZM83.6514 4.664L85.2163 5.90951L85.2234 5.90042L83.6514 4.664ZM99.7314 1.784L98.7428 3.52258L98.7558 3.52996L98.7689 3.53716L99.7314 1.784ZM101.171 8.408L99.6662 7.09099L99.6504 7.10912L99.6349 7.12763L101.171 8.408ZM97.2354 9.272L96.4475 11.1103L96.47 11.1199L96.4926 11.129L97.2354 9.272ZM98.5469 8.66394L98.7389 7.17594L94.7718 6.66406L94.5798 8.15206L98.5469 8.66394ZM98.7554 6.92C98.7554 5.93476 98.5635 4.93962 98.0307 4.06627C97.4798 3.16342 96.6619 2.55185 95.7067 2.20689L94.3481 5.96911C94.5448 6.04014 94.591 6.10857 94.6161 6.14973C94.6592 6.22038 94.7554 6.43324 94.7554 6.92H98.7554ZM95.6394 2.18394C94.6973 1.88113 93.766 1.656 92.9634 1.656V5.656C93.1207 5.656 93.5654 5.71886 94.4154 5.99205L95.6394 2.18394ZM92.9634 1.656H92.9154V5.656H92.9634V1.656ZM92.9154 1.656C91.7369 1.656 90.6105 1.85221 89.5918 2.31527L91.247 5.95673C91.6363 5.77979 92.1738 5.656 92.9154 5.656V1.656ZM89.6621 2.28491C88.7371 2.66331 87.8638 3.22647 87.2559 4.07752L90.5108 6.40248C90.5429 6.35753 90.6936 6.18469 91.1766 5.98709L89.6621 2.28491ZM87.2635 4.06698C86.4063 5.25077 85.8732 6.5618 85.7401 7.98132L89.7226 8.35468C89.7816 7.7262 90.0165 7.08523 90.5033 6.41302L87.2635 4.06698ZM85.7314 8.168C85.7314 10.0803 86.6246 11.6715 88.092 12.8799L90.6348 9.79214C89.9261 9.20851 89.7314 8.68767 89.7314 8.168H85.7314ZM88.1196 12.9022C89.3673 13.8931 90.8349 14.7448 92.4977 15.4723L94.101 11.8077C92.6918 11.1912 91.5354 10.5069 90.6071 9.76978L88.1196 12.9022ZM92.5436 15.4917C94.0639 16.1122 95.5697 16.7952 97.0609 17.5409L98.8498 13.9631C97.269 13.1728 95.6708 12.4478 94.0552 11.7883L92.5436 15.4917ZM97.0756 17.5481C98.3523 18.1734 99.4381 19.0712 100.344 20.2697L103.535 17.8583C102.265 16.1768 100.694 14.8666 98.8351 13.9559L97.0756 17.5481ZM100.344 20.2697C101.139 21.322 101.571 22.6136 101.571 24.248H105.571C105.571 21.8504 104.916 19.686 103.535 17.8583L100.344 20.2697ZM101.571 24.248C101.571 27.7331 100.49 30.0225 98.5953 31.5046L101.059 34.6554C104.156 32.2335 105.571 28.6349 105.571 24.248H101.571ZM98.5854 31.5123C96.4778 33.182 94.1003 34.008 91.3794 34.008V38.008C94.9944 38.008 98.2489 36.882 101.069 34.6477L98.5854 31.5123ZM91.3794 34.008C88.5433 34.008 86.3516 33.3737 84.6765 32.2398L82.4342 35.5522C84.9191 37.2343 87.9434 38.008 91.3794 38.008V34.008ZM84.7057 32.2599C83.1631 31.1753 82.4834 29.8522 82.4834 28.136H78.4834C78.4834 31.2198 79.8516 33.7367 82.405 35.5321L84.7057 32.2599ZM82.4834 28.136V28.088H78.4834V28.136H82.4834ZM82.4834 28.088C82.4834 27.0959 82.6316 26.34 82.8636 25.7706L79.1592 24.2614C78.6872 25.42 78.4834 26.7121 78.4834 28.088H82.4834ZM82.8497 25.8038C83.1624 25.0742 83.4475 24.7376 83.6166 24.6002L81.0942 21.4958C80.2393 22.1904 79.6284 23.1658 79.1731 24.2282L82.8497 25.8038ZM83.6219 24.5959C84.5289 23.8538 85.1033 23.6713 85.3831 23.6505L85.0876 19.6615C83.6394 19.7687 82.2939 20.5142 81.0889 21.5001L83.6219 24.5959ZM85.4015 23.6491L85.9775 23.6011L85.6453 19.6149L85.0693 19.6629L85.4015 23.6491ZM85.8114 23.608C86.3559 23.608 86.8097 23.7389 87.2195 23.9884L89.2993 20.5716C88.2371 19.9251 87.0589 19.608 85.8114 19.608V23.608ZM87.2753 24.0211C87.345 24.0605 87.3804 24.0897 87.3938 24.102C87.4062 24.1132 87.4004 24.1105 87.3888 24.0919C87.3768 24.0725 87.3682 24.0515 87.3638 24.0354C87.3598 24.0205 87.3634 24.0247 87.3634 24.056H91.3634C91.3634 22.4826 90.5302 21.2661 89.2435 20.5389L87.2753 24.0211ZM87.3634 24.056C87.3634 23.8636 87.4222 23.6606 87.5305 23.494C87.6266 23.3461 87.715 23.298 87.6912 23.3127L89.7876 26.7193C90.611 26.2126 91.3634 25.3262 91.3634 24.056H87.3634ZM87.6912 23.3127C86.9579 23.764 86.385 24.395 85.9394 25.108L89.3314 27.228C89.5257 26.917 89.6889 26.78 89.7876 26.7193L87.6912 23.3127ZM85.8922 25.1875C85.5458 25.8034 85.2326 26.5235 85.1636 27.2829L89.1472 27.6451C89.1432 27.6884 89.1387 27.6683 89.1749 27.5706C89.21 27.4758 89.2728 27.3365 89.3785 27.1485L85.8922 25.1875ZM85.1876 27.1062L85.0916 27.6342L89.0271 28.3498L89.1231 27.8218L85.1876 27.1062ZM85.0594 27.992C85.0594 29.2765 85.3571 30.5107 86.0863 31.5654C86.8183 32.6242 87.8681 33.3325 89.0747 33.7635L90.42 29.9965C89.8347 29.7875 89.5405 29.5278 89.3765 29.2906C89.2096 29.0493 89.0594 28.6595 89.0594 27.992H85.0594ZM89.0867 33.7677C89.8024 34.0182 90.5648 34.216 91.2834 34.216V30.216C91.2838 30.216 91.2787 30.216 91.2677 30.2153C91.2567 30.2145 91.2407 30.2131 91.2194 30.2104C91.1763 30.2051 91.1167 30.1952 91.0388 30.1782C90.8808 30.1436 90.6726 30.0849 90.4081 29.9923L89.0867 33.7677ZM91.2834 34.216C93.4719 34.216 95.4241 33.5437 96.9216 32.0462L94.0932 29.2178C93.4786 29.8323 92.6149 30.216 91.2834 30.216V34.216ZM96.9003 32.0672C98.4081 30.6037 99.1394 28.7269 99.1394 26.6H95.1394C95.1394 27.7371 94.7826 28.5483 94.1144 29.1968L96.9003 32.0672ZM99.1394 26.6C99.1394 23.9691 97.969 21.8011 95.8234 20.2332L93.4633 23.4628C94.6458 24.3269 95.1394 25.3269 95.1394 26.6H99.1394ZM95.8098 20.2234C94.4321 19.2342 92.9361 18.4082 91.3269 17.7435L89.7999 21.4405C91.1346 21.9918 92.3587 22.6698 93.477 23.4726L95.8098 20.2234ZM91.3413 17.7495C89.8957 17.1391 88.9763 16.7304 88.5298 16.5071L86.7409 20.0849C87.3185 20.3736 88.3511 20.8289 89.7854 21.4345L91.3413 17.7495ZM88.5298 16.5071C88.0764 16.2805 87.5823 16.005 87.0463 15.6774L84.9605 19.0906C85.5765 19.467 86.1703 19.7995 86.7409 20.0849L88.5298 16.5071ZM87.0463 15.6774C86.6118 15.4119 86.074 15.0027 85.4287 14.4161L82.738 17.3759C83.5008 18.0693 84.243 18.6521 84.9605 19.0906L87.0463 15.6774ZM85.4004 14.3908C84.3505 13.4722 83.7794 12.2403 83.7794 10.472H79.7794C79.7794 13.2477 80.7442 15.6318 82.7664 17.4012L85.4004 14.3908ZM83.7794 10.472C83.7794 8.54934 84.2913 7.07162 85.2162 5.90949L82.0865 3.41851C80.5155 5.39238 79.7794 7.78666 79.7794 10.472H83.7794ZM85.2234 5.90042C86.9952 3.64772 89.7047 2.392 93.7314 2.392V-1.608C88.7981 -1.608 84.7876 -0.0157268 82.0794 3.42758L85.2234 5.90042ZM93.7314 2.392C95.8419 2.392 97.4811 2.80515 98.7428 3.52258L100.72 0.0454178C98.7177 -1.09316 96.3569 -1.608 93.7314 -1.608V2.392ZM98.7689 3.53716C99.887 4.15106 100.179 4.79121 100.179 5.528H104.179C104.179 3.06478 102.84 1.20894 100.694 0.0308414L98.7689 3.53716ZM100.179 5.528C100.179 6.26229 99.9778 6.73485 99.6662 7.09099L102.677 9.72501C103.709 8.54515 104.179 7.09771 104.179 5.528H100.179ZM99.6349 7.12763C99.3855 7.427 99.1225 7.56 98.6754 7.56V11.56C100.276 11.56 101.677 10.925 102.708 9.68837L99.6349 7.12763ZM98.6754 7.56C98.4688 7.56 98.2403 7.51989 97.9782 7.41505L96.4926 11.129C97.1905 11.4081 97.9219 11.56 98.6754 11.56V7.56ZM98.0232 7.43371C98.0097 7.4279 98.1562 7.48624 98.3101 7.68412C98.4861 7.91045 98.5634 8.18029 98.5634 8.408H94.5634C94.5634 9.01971 94.7526 9.62555 95.1527 10.1399C95.5306 10.6258 96.0131 10.9241 96.4475 11.1103L98.0232 7.43371ZM105.048 16.28L103.054 16.1304L103.035 16.3858L103.08 16.6378L105.048 16.28ZM105.192 14.36L103.204 14.1391L103.2 14.1747L103.198 14.2104L105.192 14.36ZM107.544 13.928V15.928H109.647L109.542 13.8281L107.544 13.928ZM107.352 10.088H105.352V10.138L105.355 10.1879L107.352 10.088ZM109.032 7.784L108.003 6.06901L108.003 6.06901L109.032 7.784ZM112.536 7.208L114.515 7.50109L114.536 7.35534V7.208H112.536ZM112.152 13.88L110.153 13.8086L110.079 15.88H112.152V13.88ZM115.272 15.752L116.979 16.7949L116.991 16.7746L117.003 16.7541L115.272 15.752ZM114.12 16.664V18.664H114.197L114.274 18.6581L114.12 16.664ZM112.104 16.664V14.664H110.162L110.105 16.6052L112.104 16.664ZM112.104 28.52L110.104 28.5585L110.105 28.5777L110.106 28.5969L112.104 28.52ZM112.296 32.312L110.302 32.4597L110.302 32.4654L112.296 32.312ZM112.488 34.328L110.504 34.5761L110.511 34.6366L110.522 34.6966L112.488 34.328ZM112.68 35.432L110.7 35.7148L110.72 35.8501L110.757 35.9814L112.68 35.432ZM112.152 36.392V38.392H112.229L112.306 38.3861L112.152 36.392ZM108.408 35.864L107.852 37.7852L107.865 37.7889L108.408 35.864ZM106.584 34.04L104.6 33.7919L104.584 33.9155V34.04H106.584ZM107.592 16.712H109.592V14.712H107.592V16.712ZM105.624 16.808V18.808H105.766L105.907 18.7879L105.624 16.808ZM107.043 16.4296L107.187 14.5096L103.198 14.2104L103.054 16.1304L107.043 16.4296ZM107.18 14.5809C107.161 14.7478 107.106 14.9655 106.973 15.1906C106.837 15.4204 106.655 15.5966 106.466 15.7184C106.285 15.8344 106.124 15.8843 106.027 15.9062C105.931 15.9279 105.87 15.928 105.864 15.928V11.928C105.471 11.928 104.871 11.9882 104.303 12.3536C103.635 12.7829 103.28 13.4566 103.204 14.1391L107.18 14.5809ZM105.864 15.928H107.544V11.928H105.864V15.928ZM109.542 13.8281L109.35 9.98812L105.355 10.1879L105.547 14.0279L109.542 13.8281ZM109.352 10.088V9.896H105.352V10.088H109.352ZM109.352 9.896C109.352 10.0739 109.274 10.1401 109.337 10.061C109.417 9.9608 109.622 9.76254 110.061 9.49898L108.003 6.06901C106.748 6.82214 105.352 8.04539 105.352 9.896H109.352ZM110.061 9.49898C110.991 8.94118 111.657 8.776 112.104 8.776V4.776C110.695 4.776 109.313 5.28282 108.003 6.06901L110.061 9.49898ZM112.104 8.776C111.994 8.776 111.538 8.75665 111.099 8.36682C110.616 7.93709 110.536 7.4053 110.536 7.16H114.536C114.536 6.65869 114.384 5.93491 113.757 5.37718C113.174 4.85935 112.502 4.776 112.104 4.776V8.776ZM110.536 7.16V7.208H114.536V7.16H110.536ZM110.558 6.9149C110.41 7.91469 110.28 10.2684 110.153 13.8086L114.151 13.9514C114.28 10.3236 114.407 8.22931 114.515 7.50109L110.558 6.9149ZM112.152 15.88C113.509 15.88 114.588 15.8537 115.169 15.7568L114.511 11.8112C114.511 11.8112 114.507 11.812 114.497 11.8133C114.487 11.8147 114.473 11.8164 114.455 11.8184C114.418 11.8224 114.369 11.8269 114.307 11.8316C114.18 11.8411 114.016 11.8499 113.809 11.8573C113.394 11.8721 112.844 11.88 112.152 11.88V15.88ZM115.169 15.7568C115.358 15.7252 115.497 15.7028 115.588 15.6887C115.635 15.6815 115.661 15.6779 115.671 15.6765C115.677 15.6757 115.669 15.6768 115.653 15.6785C115.645 15.6794 115.627 15.6812 115.604 15.6829C115.587 15.6842 115.534 15.688 115.464 15.688V11.688C115.345 11.688 115.245 11.6994 115.235 11.7005C115.199 11.7042 115.167 11.7083 115.143 11.7115C115.093 11.7181 115.037 11.7265 114.98 11.7353C114.864 11.7532 114.706 11.7788 114.511 11.8112L115.169 15.7568ZM115.464 15.688C115.228 15.688 114.924 15.6348 114.619 15.4605C114.313 15.2858 114.111 15.0492 113.989 14.8397C113.874 14.6429 113.832 14.4758 113.816 14.3937C113.807 14.3489 113.803 14.315 113.802 14.2951C113.801 14.2848 113.801 14.277 113.8 14.272C113.8 14.2669 113.8 14.2642 113.8 14.264H117.8C117.8 13.943 117.765 13.3749 117.444 12.8243C117.026 12.108 116.281 11.688 115.464 11.688V15.688ZM113.8 14.264C113.8 14.161 113.821 14.148 113.783 14.2552C113.747 14.3566 113.675 14.5192 113.541 14.7499L117.003 16.7541C117.407 16.0566 117.8 15.1849 117.8 14.264H113.8ZM113.566 14.7091C113.469 14.8667 113.431 14.882 113.479 14.8439C113.507 14.8214 113.564 14.7817 113.652 14.745C113.741 14.7074 113.849 14.679 113.967 14.6699L114.274 18.6581C115.646 18.5526 116.501 17.5767 116.979 16.7949L113.566 14.7091ZM114.12 14.664H112.104V18.664H114.12V14.664ZM110.105 16.6052C110.072 17.7255 110.056 19.5917 110.056 22.184H114.056C114.056 19.5923 114.072 17.7785 114.103 16.7228L110.105 16.6052ZM110.056 22.184C110.056 24.7508 110.072 26.8768 110.104 28.5585L114.104 28.4815C114.072 26.8352 114.056 24.7372 114.056 22.184H110.056ZM110.106 28.5969C110.17 30.2672 110.235 31.5596 110.302 32.4597L114.291 32.1643C114.229 31.3364 114.166 30.1008 114.103 28.4431L110.106 28.5969ZM110.302 32.4654C110.367 33.3123 110.434 34.0195 110.504 34.5761L114.473 34.0799C114.414 33.6125 114.353 32.9757 114.29 32.1586L110.302 32.4654ZM110.522 34.6966C110.618 35.207 110.675 35.5377 110.7 35.7148L114.66 35.1492C114.621 34.8783 114.55 34.473 114.454 33.9594L110.522 34.6966ZM110.757 35.9814C110.77 36.0258 110.78 36.0616 110.787 36.0898C110.794 36.1186 110.798 36.1352 110.8 36.1419C110.802 36.1505 110.798 36.136 110.793 36.1051C110.791 36.0889 110.787 36.0616 110.784 36.0259C110.78 35.9919 110.776 35.9355 110.776 35.864H114.776C114.776 35.5928 114.722 35.3528 114.704 35.2741C114.676 35.1478 114.641 35.0137 114.603 34.8826L110.757 35.9814ZM110.776 35.864C110.776 35.5494 110.903 35.069 111.328 34.7092C111.675 34.4159 111.997 34.3981 111.999 34.3979L112.306 38.3861C112.724 38.3539 113.357 38.2321 113.912 37.7628C114.545 37.227 114.776 36.4986 114.776 35.864H110.776ZM112.152 34.392C111.095 34.392 110.029 34.2432 108.951 33.9391L107.865 37.7889C109.283 38.1888 110.714 38.392 112.152 38.392V34.392ZM108.964 33.9429C108.762 33.8843 108.626 33.8268 108.542 33.7822C108.457 33.7378 108.439 33.7147 108.454 33.7298C108.474 33.749 108.514 33.7982 108.547 33.8765C108.579 33.9545 108.584 34.0165 108.584 34.04H104.584C104.584 34.9995 104.945 35.8771 105.626 36.5582C106.255 37.1873 107.062 37.5564 107.852 37.7851L108.964 33.9429ZM108.569 34.2881C109.252 28.8193 109.592 22.9597 109.592 16.712H105.592C105.592 22.8163 105.26 28.5087 104.6 33.7919L108.569 34.2881ZM107.592 14.712C106.702 14.712 105.933 14.7436 105.341 14.8281L105.907 18.7879C106.212 18.7444 106.754 18.712 107.592 18.712V14.712ZM105.624 14.808H105.576V18.808H105.624V14.808ZM105.576 14.808C105.872 14.808 106.296 14.9154 106.642 15.2618C106.943 15.5621 107.006 15.8656 107.016 15.9222L103.08 16.6378C103.155 17.0464 103.338 17.6139 103.814 18.0902C104.336 18.6126 104.992 18.808 105.576 18.808V14.808ZM121.062 22.808H119.062V22.848L119.064 22.8879L121.062 22.808ZM121.111 24.008H123.111V23.968L123.109 23.9281L121.111 24.008ZM121.495 24.296V26.296H121.588L121.681 26.2873L121.495 24.296ZM124.183 23.528L125.135 25.2866L125.163 25.2715L125.19 25.2556L124.183 23.528ZM125.911 22.04L127.544 23.1934L127.567 23.1613L127.588 23.1284L125.911 22.04ZM127.159 18.968L125.165 18.8019L125.165 18.8111L125.164 18.8203L127.159 18.968ZM127.207 18.392L129.2 18.5581L129.207 18.4752V18.392H127.207ZM122.647 17.144L124.247 18.344L124.26 18.3254L124.274 18.3065L122.647 17.144ZM130.759 32.408L129.007 31.4418L129.001 31.4527L128.996 31.4636L130.759 32.408ZM129.079 34.424L130.208 36.0746L130.217 36.0686L130.225 36.0625L129.079 34.424ZM126.919 35.432L127.499 37.3461L127.507 37.3436L126.919 35.432ZM117.943 32.888L119.631 31.816L119.631 31.816L117.943 32.888ZM118.375 16.856L116.704 15.7568L116.699 15.7645L116.694 15.7722L118.375 16.856ZM131.383 16.232L129.599 17.1377L129.611 17.1613L129.624 17.1846L131.383 16.232ZM131.911 20.072L133.883 20.4008L133.885 20.3885L133.887 20.3761L131.911 20.072ZM129.703 24.008L128.288 22.5938L128.288 22.5938L129.703 24.008ZM126.679 25.832L125.906 23.9871L125.906 23.9871L126.679 25.832ZM121.831 26.984V28.984H121.934L122.036 28.9734L121.831 26.984ZM121.735 28.616L119.837 29.2485L119.859 29.3138L119.885 29.3775L121.735 28.616ZM122.455 30.008L120.79 31.1174L120.834 31.1823L120.882 31.2436L122.455 30.008ZM129.079 30.008L130.443 31.4701L130.446 31.4671L129.079 30.008ZM130.327 28.232L128.538 27.3376L128.521 27.3707L128.506 27.4044L130.327 28.232ZM131.335 28.376L133.214 27.6925L133.214 27.6925L131.335 28.376ZM119.064 22.8879L119.112 24.0879L123.109 23.9281L123.061 22.7281L119.064 22.8879ZM119.111 24.008C119.111 24.592 119.336 25.3208 120.006 25.824C120.569 26.2461 121.174 26.296 121.495 26.296V22.296C121.559 22.296 121.972 22.2979 122.407 22.624C122.949 23.0312 123.111 23.616 123.111 24.008H119.111ZM121.681 26.2873C122.927 26.1705 124.092 25.8517 125.135 25.2866L123.23 21.7694C122.737 22.0363 122.11 22.2295 121.308 22.3047L121.681 26.2873ZM125.19 25.2556C126.127 24.7092 126.95 24.0359 127.544 23.1934L124.277 20.8866C124.103 21.1321 123.774 21.4508 123.175 21.8004L125.19 25.2556ZM127.588 23.1284C128.437 21.8206 129.053 20.4627 129.153 19.1157L125.164 18.8203C125.136 19.2012 124.92 19.8914 124.233 20.9516L127.588 23.1284ZM129.152 19.1341L129.2 18.5581L125.213 18.2259L125.165 18.8019L129.152 19.1341ZM129.207 18.392C129.207 17.3159 129.001 16.1391 128.255 15.2021C127.44 14.1783 126.275 13.8 125.143 13.8V17.8C125.281 17.8 125.309 17.8219 125.273 17.8069C125.225 17.7868 125.166 17.7445 125.126 17.6939C125.093 17.6526 125.114 17.6583 125.144 17.7711C125.175 17.8876 125.207 18.0862 125.207 18.392H129.207ZM125.143 13.8C123.418 13.8 122.001 14.6063 121.019 15.9815L124.274 18.3065C124.572 17.8897 124.819 17.8 125.143 17.8V13.8ZM121.047 15.944C119.654 17.8003 119.062 20.1552 119.062 22.808H123.062C123.062 20.7248 123.527 19.3037 124.247 18.344L121.047 15.944ZM129.527 29.192C129.527 30.1204 129.333 30.8508 129.007 31.4418L132.51 33.3742C133.208 32.1092 133.527 30.6956 133.527 29.192H129.527ZM128.996 31.4636C128.621 32.1634 128.249 32.5632 127.932 32.7855L130.225 36.0625C131.188 35.3888 131.936 34.4446 132.521 33.3524L128.996 31.4636ZM127.949 32.7734C127.534 33.0572 127.004 33.3132 126.33 33.5204L127.507 37.3436C128.497 37.0388 129.407 36.6228 130.208 36.0746L127.949 32.7734ZM126.338 33.518C125.443 33.7893 124.631 33.912 123.895 33.912V37.912C125.078 37.912 126.282 37.7147 127.499 37.346L126.338 33.518ZM123.895 33.912C121.789 33.912 120.493 33.1732 119.631 31.816L116.254 33.96C117.952 36.6348 120.624 37.912 123.895 37.912V33.912ZM119.631 31.816C118.607 30.2035 118.023 28.0443 118.023 25.208H114.023C114.023 28.5797 114.718 31.5405 116.254 33.96L119.631 31.816ZM118.023 25.208C118.023 22.4229 118.713 20.0216 120.055 17.9397L116.694 15.7722C114.9 18.5544 114.023 21.7211 114.023 25.208H118.023ZM120.045 17.9552C121.238 16.1419 122.961 15.208 125.527 15.208V11.208C121.756 11.208 118.711 12.7061 116.704 15.7568L120.045 17.9552ZM125.527 15.208C127.898 15.208 129.014 15.9862 129.599 17.1377L133.166 15.3263C131.703 12.4458 128.915 11.208 125.527 11.208V15.208ZM129.624 17.1846C129.919 17.7294 130.007 18.1395 130.007 18.44H134.007C134.007 17.3325 133.678 16.2706 133.141 15.2794L129.624 17.1846ZM130.007 18.44C130.007 19.0626 129.976 19.4936 129.934 19.7679L133.887 20.3761C133.973 19.8184 134.007 19.1614 134.007 18.44H130.007ZM129.938 19.7432C129.938 19.7391 129.934 19.7667 129.914 19.833C129.895 19.8973 129.866 19.9841 129.824 20.0962C129.738 20.3223 129.612 20.6154 129.435 20.9825L133.042 22.7135C133.43 21.9041 133.769 21.0892 133.883 20.4008L129.938 19.7432ZM129.435 20.9825C129.151 21.5749 128.772 22.1102 128.288 22.5938L131.117 25.4222C131.913 24.6258 132.558 23.7211 133.042 22.7135L129.435 20.9825ZM128.288 22.5938C127.913 22.9686 127.178 23.4548 125.906 23.9871L127.451 27.6769C128.931 27.0572 130.212 26.3274 131.117 25.4222L128.288 22.5938ZM125.906 23.9871C124.75 24.4713 123.332 24.818 121.625 24.9946L122.036 28.9734C124.041 28.766 125.855 28.3447 127.451 27.6769L125.906 23.9871ZM121.831 24.984C121.455 24.984 120.8 25.0604 120.225 25.5628C119.6 26.1099 119.447 26.8251 119.447 27.32H123.447C123.447 27.5909 123.357 28.1381 122.86 28.5732C122.413 28.9636 121.95 28.984 121.831 28.984V24.984ZM119.447 27.32C119.447 27.9512 119.635 28.6429 119.837 29.2485L123.632 27.9835C123.55 27.7387 123.5 27.5556 123.471 27.4261C123.44 27.2854 123.447 27.2624 123.447 27.32H119.447ZM119.885 29.3775C120.146 30.0119 120.445 30.5988 120.79 31.1174L124.119 28.8986C123.952 28.6492 123.771 28.3081 123.584 27.8545L119.885 29.3775ZM120.882 31.2436C122.045 32.7237 123.726 33.352 125.575 33.352V29.352C124.671 29.352 124.272 29.0843 124.027 28.7724L120.882 31.2436ZM125.575 33.352C127.43 33.352 129.094 32.7296 130.443 31.4701L127.714 28.5459C127.143 29.0784 126.471 29.352 125.575 29.352V33.352ZM130.446 31.4671C131.168 30.7908 131.73 29.9773 132.147 29.0596L128.506 27.4044C128.283 27.8947 128.013 28.2652 127.711 28.5489L130.446 31.4671ZM132.115 29.1264C132.098 29.1612 132.009 29.3321 131.792 29.5057C131.543 29.705 131.196 29.848 130.807 29.848V25.848C129.515 25.848 128.818 26.7762 128.538 27.3376L132.115 29.1264ZM130.807 29.848C130.327 29.848 129.934 29.6356 129.692 29.3942C129.588 29.29 129.527 29.1965 129.496 29.1429C129.48 29.1149 129.47 29.0932 129.464 29.0799C129.46 29.073 129.458 29.0678 129.457 29.0645C129.456 29.0628 129.456 29.0616 129.455 29.0607C129.455 29.0603 129.455 29.06 129.455 29.0598C129.455 29.0596 129.455 29.0595 129.455 29.0595L133.214 27.6925C133.016 27.1473 132.366 25.848 130.807 25.848V29.848ZM129.455 29.0595C129.5 29.1848 129.523 29.2631 129.532 29.3021C129.536 29.3203 129.535 29.3209 129.533 29.3063C129.531 29.2926 129.527 29.2527 129.527 29.192H133.527C133.527 28.6381 133.361 28.0961 133.214 27.6925L129.455 29.0595ZM138.734 22.808H136.734V22.848L136.736 22.8879L138.734 22.808ZM138.782 24.008H140.782V23.968L140.781 23.9281L138.782 24.008ZM139.166 24.296V26.296H139.26L139.353 26.2873L139.166 24.296ZM141.854 23.528L142.807 25.2866L142.835 25.2715L142.862 25.2556L141.854 23.528ZM143.582 22.04L145.216 23.1934L145.239 23.1613L145.26 23.1284L143.582 22.04ZM144.83 18.968L142.837 18.8019L142.837 18.8111L142.836 18.8203L144.83 18.968ZM144.878 18.392L146.871 18.5581L146.878 18.4752V18.392H144.878ZM140.318 17.144L141.918 18.344L141.932 18.3254L141.946 18.3065L140.318 17.144ZM148.43 32.408L146.679 31.4418L146.673 31.4527L146.667 31.4636L148.43 32.408ZM146.75 34.424L147.88 36.0746L147.889 36.0686L147.897 36.0625L146.75 34.424ZM144.59 35.432L145.17 37.3461L145.179 37.3436L144.59 35.432ZM135.614 32.888L137.303 31.816L137.303 31.816L135.614 32.888ZM136.046 16.856L134.376 15.7568L134.37 15.7645L134.365 15.7722L136.046 16.856ZM149.054 16.232L147.271 17.1377L147.283 17.1613L147.296 17.1846L149.054 16.232ZM149.582 20.072L151.555 20.4008L151.557 20.3885L151.559 20.3761L149.582 20.072ZM147.374 24.008L145.96 22.5938L145.96 22.5938L147.374 24.008ZM144.35 25.832L143.578 23.9871L143.578 23.9871L144.35 25.832ZM139.502 26.984V28.984H139.606L139.708 28.9734L139.502 26.984ZM139.406 28.616L137.509 29.2485L137.531 29.3138L137.557 29.3775L139.406 28.616ZM140.126 30.008L138.462 31.1174L138.506 31.1823L138.554 31.2436L140.126 30.008ZM146.75 30.008L148.115 31.4701L148.118 31.4671L146.75 30.008ZM147.998 28.232L146.21 27.3376L146.193 27.3707L146.178 27.4044L147.998 28.232ZM149.006 28.376L150.886 27.6925L150.886 27.6925L149.006 28.376ZM136.736 22.8879L136.784 24.0879L140.781 23.9281L140.733 22.7281L136.736 22.8879ZM136.782 24.008C136.782 24.592 137.007 25.3208 137.678 25.824C138.241 26.2461 138.846 26.296 139.166 26.296V22.296C139.231 22.296 139.644 22.2979 140.078 22.624C140.621 23.0312 140.782 23.616 140.782 24.008H136.782ZM139.353 26.2873C140.598 26.1705 141.764 25.8517 142.807 25.2866L140.902 21.7694C140.409 22.0363 139.782 22.2295 138.98 22.3047L139.353 26.2873ZM142.862 25.2556C143.799 24.7092 144.622 24.0359 145.216 23.1934L141.948 20.8866C141.775 21.1321 141.446 21.4508 140.847 21.8004L142.862 25.2556ZM145.26 23.1284C146.109 21.8206 146.725 20.4627 146.825 19.1157L142.836 18.8203C142.808 19.2012 142.592 19.8914 141.904 20.9516L145.26 23.1284ZM146.823 19.1341L146.871 18.5581L142.885 18.2259L142.837 18.8019L146.823 19.1341ZM146.878 18.392C146.878 17.3159 146.673 16.1391 145.927 15.2021C145.112 14.1783 143.947 13.8 142.814 13.8V17.8C142.952 17.8 142.981 17.8219 142.945 17.8069C142.897 17.7868 142.838 17.7445 142.798 17.6939C142.765 17.6526 142.786 17.6583 142.816 17.7711C142.847 17.8876 142.878 18.0862 142.878 18.392H146.878ZM142.814 13.8C141.09 13.8 139.673 14.6063 138.691 15.9815L141.946 18.3065C142.244 17.8897 142.491 17.8 142.814 17.8V13.8ZM138.718 15.944C137.326 17.8003 136.734 20.1552 136.734 22.808H140.734C140.734 20.7248 141.199 19.3037 141.918 18.344L138.718 15.944ZM147.198 29.192C147.198 30.1204 147.005 30.8508 146.679 31.4418L150.182 33.3742C150.879 32.1092 151.198 30.6956 151.198 29.192H147.198ZM146.667 31.4636C146.292 32.1634 145.921 32.5632 145.603 32.7855L147.897 36.0625C148.86 35.3888 149.608 34.4446 150.193 33.3524L146.667 31.4636ZM145.621 32.7734C145.206 33.0572 144.676 33.3132 144.002 33.5204L145.179 37.3436C146.169 37.0388 147.079 36.6228 147.88 36.0746L145.621 32.7734ZM144.01 33.518C143.115 33.7893 142.303 33.912 141.566 33.912V37.912C142.75 37.912 143.954 37.7147 145.17 37.346L144.01 33.518ZM141.566 33.912C139.461 33.912 138.165 33.1732 137.303 31.816L133.926 33.96C135.624 36.6348 138.296 37.912 141.566 37.912V33.912ZM137.303 31.816C136.279 30.2035 135.694 28.0443 135.694 25.208H131.694C131.694 28.5797 132.39 31.5405 133.926 33.96L137.303 31.816ZM135.694 25.208C135.694 22.4229 136.385 20.0216 137.727 17.9397L134.365 15.7722C132.572 18.5544 131.694 21.7211 131.694 25.208H135.694ZM137.717 17.9552C138.91 16.1419 140.633 15.208 143.198 15.208V11.208C139.428 11.208 136.383 12.7061 134.376 15.7568L137.717 17.9552ZM143.198 15.208C145.57 15.208 146.686 15.9862 147.271 17.1377L150.838 15.3263C149.374 12.4458 146.587 11.208 143.198 11.208V15.208ZM147.296 17.1846C147.591 17.7294 147.678 18.1395 147.678 18.44H151.678C151.678 17.3325 151.35 16.2706 150.813 15.2794L147.296 17.1846ZM147.678 18.44C147.678 19.0626 147.648 19.4936 147.606 19.7679L151.559 20.3761C151.645 19.8184 151.678 19.1614 151.678 18.44H147.678ZM147.61 19.7432C147.61 19.7391 147.606 19.7667 147.586 19.833C147.567 19.8973 147.538 19.9841 147.496 20.0962C147.41 20.3223 147.284 20.6154 147.107 20.9825L150.713 22.7135C151.102 21.9041 151.44 21.0892 151.555 20.4008L147.61 19.7432ZM147.107 20.9825C146.823 21.5749 146.444 22.1102 145.96 22.5938L148.789 25.4222C149.585 24.6258 150.23 23.7211 150.713 22.7135L147.107 20.9825ZM145.96 22.5938C145.585 22.9686 144.85 23.4548 143.578 23.9871L145.123 27.6769C146.603 27.0572 147.883 26.3274 148.789 25.4222L145.96 22.5938ZM143.578 23.9871C142.421 24.4713 141.004 24.818 139.297 24.9946L139.708 28.9734C141.712 28.766 143.527 28.3447 145.123 27.6769L143.578 23.9871ZM139.502 24.984C139.127 24.984 138.472 25.0604 137.897 25.5628C137.272 26.1099 137.118 26.8251 137.118 27.32H141.118C141.118 27.5909 141.029 28.1381 140.531 28.5732C140.085 28.9636 139.622 28.984 139.502 28.984V24.984ZM137.118 27.32C137.118 27.9512 137.307 28.6429 137.509 29.2485L141.304 27.9835C141.222 27.7387 141.172 27.5556 141.143 27.4261C141.111 27.2854 141.118 27.2624 141.118 27.32H137.118ZM137.557 29.3775C137.818 30.0119 138.117 30.5988 138.462 31.1174L141.79 28.8986C141.624 28.6492 141.443 28.3081 141.256 27.8545L137.557 29.3775ZM138.554 31.2436C139.717 32.7237 141.398 33.352 143.246 33.352V29.352C142.342 29.352 141.944 29.0843 141.699 28.7724L138.554 31.2436ZM143.246 33.352C145.102 33.352 146.766 32.7296 148.115 31.4701L145.386 28.5459C144.815 29.0784 144.142 29.352 143.246 29.352V33.352ZM148.118 31.4671C148.84 30.7908 149.402 29.9773 149.819 29.0596L146.178 27.4044C145.955 27.8947 145.685 28.2652 145.382 28.5489L148.118 31.4671ZM149.787 29.1264C149.77 29.1612 149.681 29.3321 149.464 29.5057C149.215 29.705 148.868 29.848 148.478 29.848V25.848C147.187 25.848 146.49 26.7762 146.21 27.3376L149.787 29.1264ZM148.478 29.848C147.999 29.848 147.606 29.6356 147.364 29.3942C147.26 29.29 147.199 29.1965 147.168 29.1429C147.152 29.1149 147.141 29.0932 147.135 29.0799C147.132 29.073 147.13 29.0678 147.129 29.0645C147.128 29.0628 147.128 29.0616 147.127 29.0607C147.127 29.0603 147.127 29.06 147.127 29.0598C147.127 29.0596 147.127 29.0595 147.127 29.0595L150.886 27.6925C150.688 27.1473 150.038 25.848 148.478 25.848V29.848ZM147.127 29.0595C147.172 29.1848 147.194 29.2631 147.204 29.3021C147.208 29.3203 147.207 29.3209 147.205 29.3063C147.203 29.2926 147.198 29.2527 147.198 29.192H151.198C151.198 28.6381 151.033 28.0961 150.886 27.6925L147.127 29.0595ZM157.858 7.544L159.857 7.57669L159.858 7.56035V7.544H157.858ZM157.57 25.16L155.57 25.1273L155.57 25.1437V25.16H157.57ZM158.098 35.048L156.195 35.6636L156.241 35.8073L156.309 35.9424L158.098 35.048ZM153.73 35.48L154.499 33.6338L154.486 33.6284L154.472 33.623L153.73 35.48ZM152.05 33.704L150.07 33.4212L150.05 33.5619V33.704H152.05ZM153.01 15.752H155.01V15.7259L155.009 15.6997L153.01 15.752ZM152.818 8.408L154.817 8.35573L154.816 8.31057L154.812 8.2655L152.818 8.408ZM152.242 6.104L150.418 6.92473L150.434 6.96193L150.453 6.99842L152.242 6.104ZM151.378 4.856L152.487 3.1919L152.462 3.17559L152.437 3.16L151.378 4.856ZM150.994 4.616L152.053 2.92L152.02 2.89909L151.986 2.87951L150.994 4.616ZM152.722 2.552L153.565 4.36544L153.574 4.36124L153.583 4.35696L152.722 2.552ZM157.666 2.072L159.642 1.76788L159.638 1.74099L159.633 1.71423L157.666 2.072ZM155.858 7.51131L155.57 25.1273L159.569 25.1927L159.857 7.57669L155.858 7.51131ZM155.57 25.16C155.57 27.9275 155.614 30.1676 155.704 31.8666C155.79 33.4767 155.926 34.8322 156.195 35.6636L160 34.4324C159.917 34.1758 159.789 33.3393 159.699 31.6534C159.613 30.0564 159.57 27.8965 159.57 25.16H155.57ZM156.309 35.9424C156.282 35.8899 156.242 35.7775 156.242 35.624H160.242C160.242 35.0865 160.105 34.5901 159.886 34.1536L156.309 35.9424ZM156.242 35.624C156.242 35.2825 156.357 34.9193 156.597 34.6213C156.811 34.3555 157.041 34.2443 157.129 34.208C157.219 34.1707 157.252 34.1735 157.185 34.1828C157.125 34.191 157.017 34.2 156.85 34.2V38.2C157.391 38.2 158.057 38.1526 158.658 37.904C158.978 37.7717 159.382 37.5405 159.712 37.1307C160.068 36.6887 160.242 36.1575 160.242 35.624H156.242ZM156.85 34.2C156.26 34.2 155.486 34.0453 154.499 33.6338L152.96 37.3262C154.277 37.8747 155.583 38.2 156.85 38.2V34.2ZM154.472 33.623C154.277 33.5451 154.14 33.4738 154.047 33.4165C153.954 33.3589 153.922 33.3248 153.922 33.3256C153.926 33.3291 153.963 33.3701 153.997 33.4519C154.033 33.5372 154.05 33.6269 154.05 33.704H150.05C150.05 35.7161 151.649 36.802 152.987 37.337L154.472 33.623ZM154.029 33.9868C154.689 29.3725 155.01 23.282 155.01 15.752H151.01C151.01 23.198 150.69 29.0755 150.07 33.4212L154.029 33.9868ZM155.009 15.6997L154.817 8.35573L150.818 8.46027L151.01 15.8043L155.009 15.6997ZM154.812 8.2655C154.734 7.17223 154.494 6.13588 154.03 5.20957L150.453 6.99842C150.629 7.35211 150.773 7.85177 150.823 8.55049L154.812 8.2655ZM154.065 5.28327C153.752 4.58798 153.274 3.71651 152.487 3.1919L150.268 6.5201C150.193 6.46986 150.152 6.42838 150.142 6.41749C150.131 6.40613 150.14 6.41361 150.165 6.45042C150.219 6.52816 150.306 6.67666 150.418 6.92473L154.065 5.28327ZM152.437 3.16L152.053 2.92L149.934 6.312L150.318 6.552L152.437 3.16ZM151.986 2.87951C152.014 2.89545 152.164 2.98337 152.32 3.18412C152.497 3.41155 152.658 3.75798 152.658 4.184H148.658C148.658 5.42885 149.557 6.09867 150.001 6.35248L151.986 2.87951ZM152.658 4.184C152.658 4.59903 152.497 4.87307 152.43 4.9698C152.365 5.06313 152.333 5.07264 152.414 5.00883C152.578 4.87884 152.932 4.65994 153.565 4.36544L151.878 0.738556C151.135 1.08405 150.457 1.45716 149.933 1.87117C149.527 2.19207 148.658 2.96341 148.658 4.184H152.658ZM153.583 4.35696C154.772 3.78933 155.839 3.544 156.802 3.544V-0.456001C155.14 -0.456001 153.487 -0.029338 151.86 0.747035L153.583 4.35696ZM156.802 3.544C156.866 3.544 156.651 3.56125 156.359 3.38256C156.199 3.28487 156.039 3.14147 155.911 2.9504C155.786 2.76194 155.724 2.57617 155.698 2.42977L159.633 1.71423C159.506 1.01543 159.107 0.374275 158.444 -0.0305663C157.864 -0.385251 157.249 -0.456001 156.802 -0.456001V3.544ZM155.689 2.37611C155.789 3.02788 155.858 4.68977 155.858 7.544H159.858C159.858 4.76623 159.798 2.78012 159.642 1.76788L155.689 2.37611Z" fill="black"/>
</svg>
