<svg width="80" height="80" viewBox="0 0 80 80" fill="none" xmlns="http://www.w3.org/2000/svg">
<path opacity="0.3" d="M37.925 45.8172C38.7698 44.9713 40.2249 44.9713 41.0697 45.8172L53.1169 57.8785C55.3386 60.1028 58.2956 61.3246 61.4247 61.3246H63.7872L48.5953 76.5343C43.8547 81.1552 36.157 81.1552 31.4164 76.5343L16.1619 61.2776H17.6169C20.746 61.2776 23.7031 60.0558 25.9248 57.8315L37.925 45.8172ZM41.0697 34.2885C40.0684 35.15 38.7855 35.1656 37.925 34.2885L25.9248 22.2742C23.7031 19.9089 20.746 18.8281 17.6169 18.8281H16.1619L31.4007 3.56505C36.157 -1.18835 43.8547 -1.18835 48.5953 3.56505L63.8029 18.7811H61.4247C58.2956 18.7811 55.3386 20.0029 53.1169 22.2272L41.0697 34.2885ZM17.6169 22.3525C19.776 22.3525 21.763 23.2297 23.4214 24.7647L35.4217 36.779C36.5481 37.7659 38.0188 38.4708 39.5052 38.4708C40.9759 38.4708 42.4466 37.7659 43.573 36.779L55.6202 24.7177C57.1535 23.1983 59.2656 22.3212 61.4247 22.3212H67.3231L76.4445 31.4533C81.1852 36.1995 81.1852 43.9062 76.4445 48.6524L67.3231 57.7845H61.4247C59.2656 57.7845 57.1535 56.9073 55.6202 55.3722L43.573 43.3109C41.3983 41.1336 37.5964 41.1336 35.4217 43.3266L23.4214 55.3252C21.763 56.8603 19.776 57.7375 17.6169 57.7375H12.6385L3.56087 48.6524C-1.18696 43.9062 -1.18696 36.1995 3.56087 31.4533L12.6385 22.3525H17.6169Z" fill="black"/>
</svg>
